<svg xmlns="http://www.w3.org/2000/svg" xmlns:xlink="http://www.w3.org/1999/xlink" viewBox="0 0 1609.45 398"><defs><style>.cls-1{fill:none;}.cls-2{clip-path:url(#clip-path);}.cls-3{fill:#f2f2f2;}.cls-4{fill:#ff0;}</style><clipPath id="clip-path" transform="translate(-335.28 -356)"><rect class="cls-1" width="1920" height="1080"/></clipPath></defs><g id="Layer_2" data-name="Layer 2"><g id="Layer_1-2" data-name="Layer 1"><g class="cls-2"><path d="M1280.07,371.93h0S1280.08,372,1280.07,371.93Z" transform="translate(-335.28 -356)"/><path d="M1351.12,375.74c1.29-.11,2.94.06,3.81-.36,3.14-1.52,6.69-1.5,10.33-1.48a24.9,24.9,0,0,0,5.71-.18c3.92-1,4.85.57,5.85,2.2l5.49-3.63c-8.64-.13-16.22-.26-23.8-.36a4.87,4.87,0,0,0-1.77.38c-2,.85-3.88,1.75-5.81,2.63C1351,375.2,1351.05,375.47,1351.12,375.74Z" transform="translate(-335.28 -356)"/><path d="M1530.6,514.12c2.59-2.8,5.7-2.45,8.31-1.54l7.37-6.82-10.17-.54c-.07.29-.15.57-.22.86l6.37,1.51c-3.59.93-6.1,1.34-8.13,2.18C1532.35,510.51,1529.14,511,1530.6,514.12Z" transform="translate(-335.28 -356)"/><path d="M1352.92,373.21c-.58-1.15-.75-2.17-1.17-2.21-4-.4-8-1.16-12.38-.49C1342.67,373.78,1347.45,373,1352.92,373.21Z" transform="translate(-335.28 -356)"/><path d="M1475.21,416.52l-11.94-1-.21,1.18C1466.84,419,1470.93,418.38,1475.21,416.52Z" transform="translate(-335.28 -356)"/><path d="M1402,374.37c-3.72-.41-6.16-1.22-8.73.17C1397.3,376.18,1397.3,376.18,1402,374.37Z" transform="translate(-335.28 -356)"/><path d="M1458,417.39c.87,0,1.69-1,3.42-2.14l-7.54.18C1453.58,417.33,1456,417.43,1458,417.39Z" transform="translate(-335.28 -356)"/><path d="M1236.2,378.64l4.29-2.61C1234.71,376.15,1234.71,376.15,1236.2,378.64Z" transform="translate(-335.28 -356)"/><path d="M1278.94,380.85l-6.6.12C1276.64,383.11,1276.64,383.11,1278.94,380.85Z" transform="translate(-335.28 -356)"/><path d="M1446.54,417.81l7.13-2.38c-2.16-.32-4.33-.64-7-1.05C1446.63,415.72,1446.59,416.67,1446.54,417.81Z" transform="translate(-335.28 -356)"/><path d="M1453.67,415.43h.21a.2.2,0,0,0,0-.07Z" transform="translate(-335.28 -356)"/><path d="M1439.64,416a3.37,3.37,0,0,0,2.47,1.75c3.18-.15,1.12-1.8,1.3-3C1442.25,415.55,1439.27,414.13,1439.64,416Z" transform="translate(-335.28 -356)"/><path d="M1422,388.34c-5.5-1.8-5.85-1.73-5.92.81Z" transform="translate(-335.28 -356)"/><path d="M1278.08,376.45l7.56-1.32C1277.49,374.07,1277.49,374.07,1278.08,376.45Z" transform="translate(-335.28 -356)"/><path d="M1553.88,520.24l6.59-.29C1557.39,517.63,1557.29,517.63,1553.88,520.24Z" transform="translate(-335.28 -356)"/><path d="M1539.12,515.2l5.87.61c0-.2.11-.41.17-.61l-5.46-.82.42-.62-6.82,2.68C1537.19,516.63,1538,516.66,1539.12,515.2Z" transform="translate(-335.28 -356)"/><path d="M1552.82,506.8c1.39-.31,3,.15,4.75-.24l7.25,4.08-2.82-7.15-7.18,1.53,1.07.6-3.22.23Z" transform="translate(-335.28 -356)"/><path d="M1349.05,399.46c2.62.44,3.67-.31,4-1.47.06-.26-1.08-.92-1.65-.91C1349.11,397.12,1348.63,398,1349.05,399.46Z" transform="translate(-335.28 -356)"/><path d="M1358.5,399.88l0,.07h0l.11,0,.06-.14Z" transform="translate(-335.28 -356)"/><path d="M1357.85,398.49c-1.95.07-3.65.46-4.16,2.43l4.81-1C1358.28,399.36,1358,398.49,1357.85,398.49Z" transform="translate(-335.28 -356)"/><path d="M1313.06,381.66l-2.29,2.19C1313.8,383.4,1313.8,383.4,1313.06,381.66Z" transform="translate(-335.28 -356)"/><path d="M1257.36,381.09l3.14-1.58-1.13-.78-2.94,1.72Z" transform="translate(-335.28 -356)"/><path d="M1390.7,374.48l-.8-.93-2.4.91.48.61Z" transform="translate(-335.28 -356)"/><path d="M1532.31,527.33l-3.12-1.72-.75.43,2.55,2Z" transform="translate(-335.28 -356)"/><path d="M1296.29,378.52c2.8-1.09,4.88-1.55,1.81-3.09C1297.54,376.37,1297.12,377.1,1296.29,378.52Z" transform="translate(-335.28 -356)"/><path d="M1367.46,386.79l3.93-.19v-.39l-3.89-.2C1367.49,386.27,1367.48,386.53,1367.46,386.79Z" transform="translate(-335.28 -356)"/><path d="M1316.09,394.63l2.78-.93-.94-.85-2.37,1.24Z" transform="translate(-335.28 -356)"/><path d="M1381.24,398.49a8.62,8.62,0,0,0,2.12.33,9.37,9.37,0,0,0,2.18-.75l-.33-.42-3.93.28C1381.27,398.12,1381.25,398.3,1381.24,398.49Z" transform="translate(-335.28 -356)"/><path d="M1493.82,417.25l-3.55.4c.16.34.33.68.49,1l3.36-.63Z" transform="translate(-335.28 -356)"/><path d="M1298.67,380.65l-.28,0,.07,0-.09-.05.05.11.1,0Z" transform="translate(-335.28 -356)"/><path d="M1302.86,379.48l-4.19,1.17C1300.36,380.8,1302,380.88,1302.86,379.48Z" transform="translate(-335.28 -356)"/><path d="M1370.37,398.83l3-.27c0-.2,0-.4,0-.6l-3-.17C1370.4,398.13,1370.38,398.48,1370.37,398.83Z" transform="translate(-335.28 -356)"/><path d="M1551.81,508.62l-3.28.14c.11.33.21.67.31,1l3.16-.56C1551.93,509,1551.87,508.82,1551.81,508.62Z" transform="translate(-335.28 -356)"/><path d="M1497.5,418l3.14.68c.06-.25.13-.5.19-.75l-3.06-.49Z" transform="translate(-335.28 -356)"/><path d="M1257.91,392.17c-1.92-1.26-3.74-1.06-5.8-.71C1253.41,393.4,1255.42,392.62,1257.91,392.17Z" transform="translate(-335.28 -356)"/><path d="M1190,391.56c0-.27,0-.54.08-.81l-3.74-.51-1.46,1.69Z" transform="translate(-335.28 -356)"/><path d="M1186.36,390.24l.11-.13h0l-.15.12Z" transform="translate(-335.28 -356)"/><path d="M1838.84,550.83c13.12,3.06,25.49,6,38,8.75.78.17,2.3-.93,4.89-2-11.14-2.93-20.46-5.41-29.82-7.82C1847.84,548.69,1843.62,546.87,1838.84,550.83Z" transform="translate(-335.28 -356)"/><path d="M1679,647.74c-7.26-4.28-14.6-2.81-21.86-2l1.56-1.38c-4.35,0-7.62.36-9.11,2-2.06,2.27-4.81,2.37-8.25,2-3.19-.34-6.4-.62-9.6-.94s-6.5-1.17-9.55-.89c-3.23.28-5.58.61-8-1.2-1.08-.81-3.57-1.07-5.5-1.27-3.84-.39-7.73-.57-11.8-.85.72-1.3,1.16-2.11,1.83-3.34-8.08-1.15-15.56-2.62-23.62-2.83-6-.16-12.24-.31-16.48-3.59-4.26,2.43-5.2,2.65-7.79.64-4-3.13-9.37-4.17-15.32-3.77-4.4.29-7.84-.16-10.43-2.25l-5.06,1,1-.79c-1.64-.89-3.08-2.22-5-2.55-2.1-.37-4.63.18-7.16.35.22-3.33-4-3.69-7.51-4-3.73-.36-7-2.32-11.13-1.24-3.66-3.79-5.92,1.48-9.82.32-.26-2.75-4-3.85-8.1-4.55-5.55-.94-11.16-1.75-16.73-2.68a16.51,16.51,0,0,1-2.68-.89c.11-.29.21-.59.32-.88,3.58.19,7.25.12,10.7.62,11.26,1.61,22.5,3.21,34.16,2.44,4.87-.32,8.81.29,11.74,2.78-.4.81-.81,1.61-1.3,2.56,4.52.34,8.57,1.46,12.27-1,3.91-2.64,10.5-3,14.5-.51,4.32,2.71,9,.7,13.4,1.22,3.85-3,11.11-2.2,15.6-5.34-3.83-.72-7.32-1.74-11-2-12.14-.8-24.33-1.29-36.49-2-3.42-.18-6.78-1.25-10.16.3-.69.31-2.35-.13-3.55-.28-3.66-.47-7.29-1.07-11-1.43-4.1-.4-8.25-.59-12.49-.89l1.28-3.16c-10,2.7-19.34,1.74-27.86,1l-7-5c-3.66,3.73-8.1,4.72-13.92,3.56-1.27-.25-2.94.35-4.43.36-2.45,0-4.5-.38-4.57-2.28a12,12,0,0,0-.94-2.74c-1.39,1-2.74,1.65-2.58,2,.82,1.65-.82,2-2.71,2-5.76,0-11.54,0-17.26-.33-13.38-.74-25.94-3.51-38.55-6.09a35.22,35.22,0,0,1-3.87-1.44c5.89-.08,10.14-.24,14.38-.17s8.58.94,11.1-2.3c.4-.5,3.15-.33,3.67-.37.82-1.38.93-2.67,1.94-3a7.94,7.94,0,0,1,7.26.91l-2.18,3.13c2.61,0,4.75-.2,6.51.18s3.36,1.41,5.24,2.25c3.42-1,6.62-3.37,10.45-3.75.53,2.76,1.7,4.09,7.39,4l0,.14c5.12,1,4.07-2.89,8-3.17.94,1.94,3.24,2.39,6.69,1.82a12.09,12.09,0,0,1,3.75.19c-.87.91-1.31,2.59-2,5.31l11.06-4.08c3.31,0,6.83-.48,9.64.2a87.4,87.4,0,0,0,13.18,1.81,27.48,27.48,0,0,0-4.44,1.48l12.12.62c.6.42,1.25.88,2,1.33a4.83,4.83,0,0,0,3.22-1.07l3.77.19c-.92-.38-1.85-.77-2.79-1.14a21,21,0,0,0,1.68-2.33l-2.94-.83c4.07,0,9.25-.26,9.72-1.16.11-.23.24-.44.36-.64a29.49,29.49,0,0,0,6.12-.45,18,18,0,0,1,5.18,0c5.54.89,10.93,2.17,16.52,2.89,9.07,1.17,18.26,2,27.37,3,3.2.37,6.78.55,9.4,1.57,4.7,1.82,8.89,1.27,13.3,0-.69-2.61-3.54-2.77-6.69-1.92-3.81,1-7.1.46-10.86-.28q-20-4-40.3-7.49l1.22-.1c-2.29-2-4.08-3.11-5.14-4.46-3.18-4.08-4.23-4.45-9.43-2.08a47.43,47.43,0,0,0-6.31,3.3c-10.48-1.73-21-3.42-31.35-5.36-3.85-.71-7-2.9-10.42-4.42l.65-.87c5.07.79,10,3.55,16.38.62l-8.2-1.73a6.11,6.11,0,0,1,.72-.64l.5.74a17,17,0,0,0,6.2-1.68l.19.07c5.65,2.19,12,1.61,18,2.49,2.77.4,6.65.71,7.84,1.89,2.36,2.35-3,2.92-4.64,4.7l3.49.47c3.46-1.54,5.88-3.52,8.21-3.48a79.37,79.37,0,0,1,17.6,2c3.44.88,7,1.61,10,1.15a33.77,33.77,0,0,1,12.87.85c2,.43,3.71,1.44,5.73,1.76,8.52,1.33,17.73.18,26,2.66a12.71,12.71,0,0,0,3-.12,12,12,0,0,1,2.89.09c3.22.78,6.38,1.67,11.59,3.07-8.36-1.61-5.35,3.17-10.66,3.46,6.34,1.76,9.42-.73,11.7-2.22,2.92-1.91,5-1.88,8.42-1.07,5.09,1.22,10.32,2.23,15.53,3.26,7.79,1.54,16.27,1.76,23.29,4.81,1.64.71,4.18.65,7.15,1.06l-1.57-3.15c-9.54-1.57-18.08-2.87-26.49-4.44-2.26-.42-3.94-2-6.21-2.46q-13.57-2.87-27.38-5.35c-6.71-1.21-13.88-1.68-20.22-3.36-6-1.59-12.31-2.41-18.5-3.53-4.79-.86-9.61-1.72-14.31-2.74a46.9,46.9,0,0,1-5.85-2.08c1-.59,1.5-1.18,2-1.16,12.42.64,24.7,1.76,36.91,3.31l-2.32,2.75,18.16-.06-1.73-.69q4.77.75,9.53,1.57l-.38,0,9.19,5.37,2.36-1.71c-1.17-2.4-3.4-3.8-8-3.85.32-2.37,3.11-2,5.48-1.44,4,.92,7.52,2.86,12.28,1.81,3.38,2.44,9,1.34,13.2,3.12l-.56,3c-3.26-1.42-8-.55-11.24-1.08l14.29,4.17a5.56,5.56,0,0,0-2.77-3c2.25-.41,4.38-1.15,6.23-1,9.34,1,18.63,2.23,27.88,3.55l.19,0c-.08.9-.14,1.61-.2,2.27l11.21,3.92c.5-.84,1.13-1.91,2-3.34l-2.27-1.09c2.37.41,4.73.83,7.11,1.23s4.92.63,7.31,1.08q18,3.39,36,6.85c1.91.37,3.88.63,5.76,1.06,8.62,2,17.2,4.08,25.87,6,1,.23,2.51-.32,4.22-.57-2.07-2.16-4.7-2.81-7.84-3-8.51-.43-15.09-5-24.17-4.22a1.06,1.06,0,0,1-.63-.24c-2.43-2.39-6.76-2.4-10.5-3.11-8-1.53-16.18-2.84-24.09-4.56-4.94-1.07-11.45-.53-13.25-4.06a77.15,77.15,0,0,1-15.34-1.09l-.87-.42a2.28,2.28,0,0,1,0,.26,110.66,110.66,0,0,1-16.77-4.64l-5.27,1.21a30.76,30.76,0,0,1-3.15-2.08,14.79,14.79,0,0,1-1.85-2.24c-6.07,2.93-6,2.91-11.38,0-.85-.46-2.65-1.1-3-.91-2.72,1.35-4.66-.37-6.93-.46-5.62-.22-10.44-3.5-16.79-1.16l.62-3.35,7.51-.1c.13-.32.26-.64.4-1l-2.48-1.26c.06-.6.13-1.19.2-1.78,7.36,2.23,12.24,9,23.39,4.63,1.08-.43,4,1.16,6.19,1.42a53,53,0,0,0,6.67,0c-.9-4.45,5-2.37,8-3.13l1.14,2.35c10.82-1.16,20.23,2.56,30.48,1.5-3.71-1.52-6.26-4.48-11.94-2.9-1.41.4-3.47,0-5.21-.14-8.2-.62-9.79-1.17-6.89-4.4l6.65-3.89c-4.21-1.29-7.37-2.07-10.22-3.16-7.17-2.75-16.41-3.65-21.11-8.6l16.33,2.54c-1.55-2.83-5.16-2.58-8-2.4a4.23,4.23,0,0,1-1-.06l1,.06c.83-4-.72-6-6.27-6.42-.69,2-1.27,3.63-1.84,5.24a9.26,9.26,0,0,0-1.76.81l1.32.2c-2.72,2.88-5.86,5.29-12.06,4.2,0-1.63,0-3,0-4.89l-5.3,1.22a3.78,3.78,0,0,0-.49-.49l.51,0,0-.45-1.16,0a3.22,3.22,0,0,0-1.33-.44c-2.56-.29-5.13-.52-7.7-.76a19.53,19.53,0,0,0-13.43-1.47c-2.75-.33-2.86-1.08-3.3-4.28l-12.34-3.38.15-.51h2l12.23,2.62q-1.89-1.37-3.85-2.58l4.08,0a71,71,0,0,0-8.1-2.29,49.39,49.39,0,0,0-4.55-2c-2.61-1-5.86-1.32-7.54,1.33-7.69-.1-15-2-22.68-2.33-2.45-.12-4.89-.32-7.32-.56a5.47,5.47,0,0,0,4.19-2.84,12.06,12.06,0,0,0-7.46,2.49c-3.19-.37-6.37-.78-9.55-1.17a3.11,3.11,0,0,0,1.53-2.86,14.11,14.11,0,0,0,4.85-.89c-1.83-.26-3.57-.5-5.23-.77a2,2,0,0,1-.1-.26l-.29.2a30.4,30.4,0,0,1-9.65-2.87l.18-.1a27.94,27.94,0,0,1,4.5.61,5.94,5.94,0,0,0,5.46-1.46l-3.54-.73a4.34,4.34,0,0,0,1.23-2.55,12.78,12.78,0,0,0-1-4.45c4.55-1.69,4.43-2.62.8-4.55-.56,1.07-1.12,2.14-1.79,3.4l-7,0,.15.88c-1,.37-2.37,1.09-3.45,1-4.26-.48-6,1-7.21,3.19l-2.2-1-5.11,1.8-4-4.18c.28.44.55.89.82,1.34L1481.8,525c-4.07-.34-8.15-.67-12.22-1.06-5.57-.78-11.14-1.53-16.71-2.3.29-2,2.58-2.4,5.5-2.64,3.67-.29,7.27-.91,10.91-1.33a15.64,15.64,0,0,1,4.18-.19c3.69.63,3.69-.63,4.18-2.09,2.76.17,4.9-.78,7-1.69-3.54,0-7.09,0-12.56.06a17.5,17.5,0,0,0,2.86,1.14A103.83,103.83,0,0,1,1462,515a24.19,24.19,0,0,1,3.61-2.69l.12.1,4.65-1.77a18.33,18.33,0,0,1,5.72.14,14.91,14.91,0,0,0,3.57-.35c3.51,2.48,3.46,2.37,8.84,1.27l.18,0,5.21,1.92-6.66,1.46-2.5-1.38v0l-.12,0h.09c-.5.81-1.1,1.62-1.56,2.44a28.37,28.37,0,0,0-4.35.47,17,17,0,0,0,3.67,1.37c-.15,1.28.49,2.58,2.89,3.92l6.81-3.19a5.6,5.6,0,0,0,.49.36c-.07.09-.13.19-.2.29l.59,0a6.63,6.63,0,0,0,5.06.46l-1-.79.32,0a12.3,12.3,0,0,0-1.21-.7l-1.83-1.48c2,.2,4,.32,6,.34v.27l2.9-.3q3.26-.09,6.43-.49c1.9.42,4,1.6,5.84-.57l-3.37.21a93,93,0,0,0,12.22-2.89,19,19,0,0,0-6.81-.5l.83-2c.76.05,1.55.08,2.37.07-.77-1.4-1.34-2.45-1.93-3.51l7.08-1.75-7-.76c0-.31.11-.62.16-.93l10.32.16c0,1.19-.09,2.17-.13,3l-5.57,1.43c2.36,2.47,4,2.66,5.63.83s2.41-4.21,4.81-5.1c2.65-1,4.75-1.9,5.88-3.78,1.23,1.34,2,3.18,3.26,3.36a28,28,0,0,0,10.83-1l-2.68-1.3,5.37-.29.43,2.53,9.16-3.44-7.31-2.07,4.14-1.24c-4.36-1.05-8-1.29-11.37-2-4-.84-7.28-.45-10.25,1.25h0a75,75,0,0,0-18.08-1.81,18.87,18.87,0,0,1-2.49-.21c-6.27-.77-12.6-1.4-18.77-2.38a14.81,14.81,0,0,0-5.72,0,115.17,115.17,0,0,1-15.08-2.32,3.81,3.81,0,0,0,.47-3,29.07,29.07,0,0,1-2.89,2.3,32.12,32.12,0,0,1-5.72-2.36c3.48-5.13,9.46-7.61,18.37-8.09-1.3-1.14-1.71-2-2.54-2.18-14.71-3.7-30.41-4.45-46-5.65-3.36-.26-6.76-.47-10-1-3.59-.52-7.12-1.17-10.63-1.86l3.7.27c.74.05,1.66-.92,2.54-1.44l-3.62-2.62-13.06,1.69a169.45,169.45,0,0,0-20-3l-4.18-.31,7.37-1.07c3.33-.48,7.27-.35,9.89-1.43,3.26-1.35,6.87-1.32,10.09-2.17,4.14-1.09,9.51-.6,13.22-2.32,1.86.91,4.31,1.4,8.25.31l-6.83-1.16a6.51,6.51,0,0,0,1.29-1.28c.25-.33,1.53-.41,2.36-.52a35.71,35.71,0,0,0,9.6-2.79c3.32,2,7.81.76,11.33,2.13a12.72,12.72,0,0,0,9.53-.75l-16.53-2.51c6.15.79,12.3,1.61,18.71,1.16.76,0,1.63.67,2.53.93a6.34,6.34,0,0,0,1.67-.23c-.23-.7-.47-1.42-.64-1.91-2.36-.29-4.71-.61-7.06-.93l0-.83-5.7,0-6.18-.88c.45-.23.91-.46,1.38-.68-2.74-.74-5-.94-6.73-.07l-2.27-.31,0-.11,4.39-2.55c-9.88-3-12.21-3-16.36.38l8.73.61c.22.23.43.47.64.7l-1.19.46c-4.14-.53-8.29-1-12.46-1.41a24.68,24.68,0,0,0-3-1.82,5.09,5.09,0,0,0-1.78-.35l1.72-.55a5.88,5.88,0,0,0-.73-.68c1.34.13,2.68.29,4,.43l.29-.91-5.55-.92c0-.29.31-.59,1-.93a22.46,22.46,0,0,0,4-2.47c1.5-1.19,2.81-2.47,4.17-3.72h0v0l.36-.32c-.13-.09-.22-.18-.33-.27l0-.42-.49,0c-1.5-1.72.77-2.89,2.53-4.26.82-.63.7-1.73.92-2.63.34-1.32.6-2.66.94-4.2l-4.22-2.08a13.29,13.29,0,0,0,.69-1.89,11.11,11.11,0,0,0,.1-1.79c-5.83-2.26-11.39,2.63-17.11,0l2.45-1.74c-8.63-2.78-17.85-2.15-26.72-2.78.68-2.7.68-2.7,6.55-3.08l-12.84-3.62-1,2.21c-3.24,0-6.15-.13-9-.13-4.15,0-5-.49-5.59-3.24,0-.15-.43-.28-.67-.42l-2.23,1.52-6.93-2.15c-.69,1.48-1.38,3-2.23,4.83l-5.54.11,2.14-2.67-13.79-2c.6-1.34,1-2.13,1.63-3.61L1330,401c-2.83-2.29-6.83-.23-10.06-1.1-.52-1.07-1.06-2.16-1.63-3.3-4,1.64-7.42,2.13-11.06-.14-1.19-.74-3.34-1-5.15-1.27-2.36-.31-4.81-.36-7.94-.57-3.39,1.19-7.41,3.24-12.57.54-.72.81-1,1.71-1.95,2.05-1.43.53-4.36,1.21-4.72.92-3.3-2.66-7-1.65-11.45-.17a22.71,22.71,0,0,1-.2-3.72c.19-1.62-.42-2.8-3.25-3.16a1.49,1.49,0,0,1,.79-2h.72c4.79,0,9.54,1.41,14.37,1.62,2,.08,4.08.1,6.12.1l-1.64,1.11c2.11.24,3.64.68,4,.43a11.69,11.69,0,0,1,5.63-1.62h2.51c2,.09,4,.34,5.94.42a3,3,0,0,0,1-.2,56.06,56.06,0,0,1,10.37,1.6,18.07,18.07,0,0,0,4.61.07,621.3,621.3,0,0,1,62.15,1.64c14.41,1,29.47,1,42.75,5.62a14.62,14.62,0,0,0,6.59.88c13.22-2.53,25.7.7,37.22,3.11,10.39,2.16,19.77,3,30.42,1.42l5.94,5c3.38-.22,6.4-.66,9.36-.55,3.26.13,6.47.76,9.84,1.19l-2.15,2.17a19.21,19.21,0,0,1,15.13.32c1.2.49,3,.37,4.51.65,7.65,1.46,16.09,2.18,22.7,4.68,6.45,2.44,11.59,5,19.62,3,1.71-.44,4.39.67,6.67.94,2.73.31,5.51.48,8.27.71a106.29,106.29,0,0,0-22.89-6.71c-17.42-3.1-35-5.77-52.57-8.67-13.4-2.22-26.6-5-40.17-6.69q-36.4-4.62-73.17-8.22-8.81-.86-17.64-1.66a4.64,4.64,0,0,0,2.47-1.07c1.42-2,3.87-2.1,6.71-2.12,2.06,0,4.11-.16,6.62-.27-11.81-3.51-12.27-3.5-18.56.47-2.3-1.83-4.72-1.07-6.74-.22-1.51.64-1.66,1.43-1.18,2.26-5.45-.48-10.91-.93-16.38-1.38a12,12,0,0,0,4.46-2.91c-4.07-.21-7.22-.33-9.89,1.29a14,14,0,0,0,2.54,1.39l-8.84-.7,6.41-4.88c-4.36-.26-7.09,1.63-11.07.87-2.42-.47-6,1.31-8.28,1.89.79.14,3.36.12,4.13.83a5,5,0,0,0,1,.71c-3.13-.24-6.26-.46-9.39-.68,0-.94.07-1.73.1-2.46-2.28.66-4.36,1.54-6.49,2q-15.4-1-30.85-1.82a16.1,16.1,0,0,1,3.15-1.37c2.24-.54,1.93-1.45,1.46-2.45-5.31,1.52-5.37,1.56-4.77,3.81q-16.7-.86-33.41-1.44l-8.2-.3c-3.1-1.14-6.12-2.36-9.37-3.22-1.09,1.31-.71,2.17.35,2.88l-5-.19a11.74,11.74,0,0,0-2.13-.81q-1.29.36-2.64.63l-13.2-.46c2.27-.5,4.58-.95,6.86-1.43.24-.45.47-.91.71-1.37-4.93,1.81-6.83.09-8.38-1.5-4.92.3-4.48,2.38-4.34,4l-.17.11-7.24-.22c1.22-1.21,1.76-2.71.49-4.82-1.76,1.59-5.54.89-6.2,3.08l4.39.76-1.15.92c-5.91-.15-11.82-.28-17.74-.35l1.9-2.08c3.38,1.08,6.58,2.25,10.49.61-2.61-2.3-6.29-1.89-10-2-.87-3-4.09-4-8.55-3.7.14,1.27,1,2.65.24,3.52-1.49,1.71-4.29,1.05-7,.72.56-.9,1.6-1.71,1.34-2.3-1.14-2.58-.86-3.44,2.71-3.61,7.12-.35,14.29-.4,22.11-.59a11.84,11.84,0,0,0-1.47.85,9,9,0,0,0-.73.93c6.74,1.89,6.74,1.89,10.94-.79.74-.47,8.18-1.42,8.93-1.12.14.05.19.2.29.32l-1.54,1.82,16.06,1.35,1.78-2.47c1.87,0,3.59.18,5.25.06,4.2-.32,8.91-.15,12.39-1.31,3.87-1.3,7.52-1.37,11.29-1.55a7,7,0,0,1,1,.72c.21.22.19.52.4.73,2,2,7.24,2.29,8.67.26,1.74-2.47,3.18-1.29,4.9-.31a6.16,6.16,0,0,1,1.34,1l18.6,1.76c.9-2.8.9-2.8,4-4-.16,1.82.57,3.31,3.19,4.27,3.64-4.17,9.94-3,18.16-.29l3.42-2.53c2,.57,4.2,1.27,3.69-1.24-4.45-.95-8.77-1.33-13,0-1.76-1.43-1.76-1.42-3.49-1.25a11.23,11.23,0,0,1-2.19.11c-1.44-2.76-5.11-1.72-8.1-1.82-4-.13-8.39.23-12.08-.54-5.49-1.16-9.74-.76-14.11,1.49-2.38,1.24-4.71.67-7-1.16l5.49-.29a2.9,2.9,0,0,0-2.2-1c-8.3-.54-16.59-1.17-24.91-1.57-21.6-1-43.21-2.08-64.84-2.88q-37.92-1.41-75.88-2.41c-24.86-.68-49.72-1.31-74.59-1.69-25.75-.4-51.5-.42-77.25-.68-49.16-.51-98.3-.62-147.28,2.63-32.41,2.15-64.88,4-97.25,6.38-28.91,2.12-58,3.38-86.53,7.35-9.2,1.29-18.54,2.23-27.62,3.76-13.61,2.3-27,5-40.57,7.48-7.4,1.35-14.95,2.4-22.26,3.9a22,22,0,0,0-7.1,3.12c-2.35,1.48-4.54,3.05-6.67,4.65-7.21.72-14.4,1.52-21.56,2.45-9.87,1.29-20.12,1.15-29.76,3.45-7.13,1.7-14.82,2.48-22.07,4-14.44,3.05-29.69,4.74-43,9.82-7.44,2.85-14.34,5.91-19.14,10.5a17.09,17.09,0,0,1-4.57,3.48c-7.1,3.33-14.51,6.42-21.61,9.75-2,.91-5.93,1.84-1.9,4.08.47.26-.51,1.46-.74,2.23a6,6,0,0,0-.11,1.25l6.49,1.37a8.72,8.72,0,0,1-1.08,2.35,16.4,16.4,0,0,1-2.48,1.91c7.82,4.09,8.32,5,4.61,7.65l9.69,5c-7.34,1.11-7.79,1.54-5.62,4.39-2.58,3-6.78.44-10.64,1.15.05,1.15-.55,2.58.36,3.32.73.59,3.3.33,5.12.46,4.16,4.57,11,7.24,19.37,9.12l-4.5,1.2,6.61,1.6c-10.45,2.13-19.75.44-29.24,0,4.75,3.35,11.85,2.44,17.41,3.46-.71,1.45-1.32,2.69-2,4.12-4.48.88-4.43.85-6.86-.24a31.44,31.44,0,0,0-4.08-1.2c-.23.88-2.57,1.66-.07,2.68,1.1.44,2.36,1.27,2.49,2,.83,4.69,5.16,7.47,12.18,8.95a7.33,7.33,0,0,1,1.36.55l-9.07,2.11,6.57,1.25-1.9,2.08,12.71,1.73,4.68,5.21-7.18.27,8.53,4.18c-6.83.61-12.53-2.49-17.89.63l4.42,1.23c-5.85.81-8.63.5-14.16-1.21-3.89-1.2-7.81-1.14-12.78,0,2.32.72,3.59,1.18,5,1.51a14.18,14.18,0,0,0,2.88.36c11.32.36,22.21,1.43,30.68,6.68a5.25,5.25,0,0,0,2,.63c6.95.83,13.39,3,20.7,2.92,2.73,0,5.47-.12,8.2-.18-8,2.46-16.84.39-25,2.2a67.67,67.67,0,0,0,7.23,1c1.42.17,3.54.24,4,.8,2.25,2.48,5.73,2.76,9.37,2.88a32.25,32.25,0,0,1-2.84,2.39c-1.32-1.2-3.24-1.57-6.2-1.07.64,1,1.63,1.88,1.53,2.67s-1.27,1.59-2.14,2.57c.53,0,1.09-.07,1.64-.13-2.4,2.12-4.19,4.43-4,7.39a1.89,1.89,0,0,1-1.13,1.6c-5.38,2.32-5.32,5.41-4.2,8.44a13.13,13.13,0,0,0-4.5,1.5l5-.14.29.63a6.66,6.66,0,0,1-.67,7.1c-.73,1.09-1.92,2.47-1.41,3.41a98.25,98.25,0,0,0,7,10.57c.45.6,2.15.85,3.27,1.27-.17-1.9-1.18-3.12-1.94-4.4-2.21-3.72-2-7.12,3.51-9.89,2.89-1.44,5.49-3.09,8.19-4.64L414,568.55l5.57-1.8,2.21,0c.41,1.05.86,2.22,1.56,4.07l.05,0a16.68,16.68,0,0,1-1.7,3.41c-1.6,2.49-1.11,7,1.6,8.71,7.11,4.54,6.29,9.87,7.24,15.18,1.1,6.19-1.71,13.17,8.41,17.66-4.85,2.31-8.83,5.19-11.21,9.18,2.11.4,3.84.58,5.34,1,4.45,1.36,8.94,2.64,9.47,6.34.22,1.53,1.6,3,2.48,4.54,9-3.37,16-8,25.84-9.76l1.18,1-8.37,5.07,5.19,1c-3.33,1.65-5.89,3.16-3.92,6l12,.11c-4.23,4-11.28,5.34-15.86,8.49a69.79,69.79,0,0,0,7.68-1.3c6-1.07,11.52-4.32,18-1.32l8.28-4.6,1,.92a5.58,5.58,0,0,0,2,1.83c2.86,2.63,5.52,5.29,7.06,8.28l-16,2.41c0,.19,0,.38,0,.57l13.15-.14.21.91-15.37,2.34c2.45,1.27,3.49,2.22,4.79,2.38a38.81,38.81,0,0,0,6.73,0q6.11-.34,12.2-.73c.33,1.17.67,2.35,1,3.59,1.21.36,2.42.71,3.63,1-.07.06-.14.1-.2.16a6.19,6.19,0,0,0,3.7.72,35.13,35.13,0,0,0,12.82.82l.12,0c-2.91.44-4.53.77-6.19.92-2.85.24-5,1.17-5.08,2.85-.11,1.93-1.45,2.9-4.06,3.8a42.74,42.74,0,0,0-6.15,3.26c6.63.83,7.39.71,10.65-1.49s14.2-3.81,18.12-2.18c4.12,1.71,8.23,1.88,12.8,1.73a43.2,43.2,0,0,1,5.53.5,28.48,28.48,0,0,1-3.71.82c-2.06.18-4.14.3-6.2.47-1.43.12-3.66-.24-4.21.21-.18.15-.37.29-.56.43a25.12,25.12,0,0,0-7.2,1.87,24.64,24.64,0,0,1-3.87-.41,29.28,29.28,0,0,0-15,.76c-1.4-.82-1.91-.64-4.63.32l3.16.22a29.63,29.63,0,0,0-5.52,3l8.48,10c3.57-.16,8.21.13,12.31-.64,6.79-1.28,13.44-2.83,20.06-4.42l8.54,1c-3.26.79-6.56,1.56-10,2.37a4.55,4.55,0,0,0-1.34.3l-13.51,3.12c4.27,1,6.19,1.93,7.61,1.7l.65-.11-.1.1,11.39.78,1-.35-3.92-1.07,1.12-.78c1.13.16,2.3.26,3.38.5,5.79,1.3,11.5,3.06,17.36-.06.83-.44,2.78-.18,4.19-.11s2.95.52,4.41.5c9.77-.17,19.55-.28,29.3-.68l13.56-.6-.48.35,2.11-.42c14.56-.68,29.11-1.41,43.68-2,5.41-.22,11-.28,15.71,2.36,2.13-2.5,6.12-2.87,10-3,12-.5,23.86-1.61,35.91-.77a76,76,0,0,0,8.24-.24c6.78-.27,13.54-.73,20.32-.75,2.55,0,5.12,1,7,1.44,16.75-.51,32.87-3,49.63-1.76-.82-2.9-4.43-2.29-7.53-2.34-11.44-.15-22.88-.29-34.31-.5-3.91-.08-7.94-1.14-11.32,1.12-.59.4-2.38.15-3.61.14l-22.57-.26c-4.48,0-9.13-.55-13.39,0-13.2,1.77-26.28-.11-39.49,0a13.32,13.32,0,0,1,4.59-1c9.28-.22,18.7.18,27.84-.63,15.69-1.41,31.66.15,47.22-2,8,1.72,15.92.12,23.89,0,6.24-.06,12.49.41,18.73.34,9.78-.12,19.56-.81,29.32-.67,8.59.13,17.54-1,25.74,1.73a11.55,11.55,0,0,0,3,0c3.24,0,6.47,0,9.71,0,1.45,0,2.93,0,4.36-.14,2.82-.28,5.62-1,8.42-.92,8,.09,15.91.56,23.88.67q19.92.28,39.86.3c9.73,0,19.45-.08,29.18-.14a19.52,19.52,0,0,1,3.69-.14c9.32,2,18.95,1,28.42,1,21.09.21,42.2.06,63.29.28,24.88.25,49.75.69,74.62,1.13,7.77.13,15.53.62,23.3.79,6.75.15,13.53-.08,20.27.14,15.76.52,31.55.33,47.26,1.69,9.17.8,18.58.7,27.88.72,5,0,10.36.77,16.08-1-2-.86-3.27-1.74-4.77-2-6.09-.92-12.2-1.92-18.4-2.35-7.93-.56-16-.68-23.94-.83-5-.1-10.09.49-15,0-3.76-.34-6.91-.66-10.82.12-3.37.67-8.33,1.59-10.8-1.73-9.91,1.08-19.7,1.53-29.77.14-6.89-.95-14.2-.88-21.34-1.06-10.77-.28-21.55-.35-32.32-.56-4.51-.09-9-.29-13.52-.52a13.92,13.92,0,0,1-3.38-.63c.7-2.5-2.31-1.85-4.21-1.8-2.46.08-6.82.16-7,.71-1.11,2.93-4.33,1.9-7.07,1.85-.28,0-.55-.44-1-.78.44-.29.94-.58,1.37-.91s.79-.68,1.28-1.11c-3.74-.08-3.74-.08-6.69,2.43-8.34-.06-16.84.37-25.31-1l8.73-.54c-10.55-3.55-21.54-.22-33.38-2.17,7.3-1.68,13-2.95,19.16-2.79,9.44.25,18.87.73,28.32.85,4.66.06,9.56-1.11,14-.59,12.39,1.47,25.24-.69,37.41,2a13.19,13.19,0,0,0,3.73-.14c5.83-.57,11.51-.5,17.42,1.89,2.83-3.94,7.82-2.69,12.86-2.48,6.69.28,13.46-.14,20.2-.27,1.75,0,3.5-.2,5.24-.14q23.31.83,46.6,1.71c5.25.19,10.51.67,15.75.61,7.19-.09,14.39-.69,21.88,1.76-.27-1.71-.45-2.81-.64-4-8.81-.3-17.15-.44-25.92-2.05,8.9-2.41,24.65-1.11,29.74,1.71l17.33-2C1284,673,1278,671.9,1272,671c-1.6-.25-4-.46-5,0-3.06,1.55-6,1-9.2.52a108,108,0,0,0-19-1.32c-8,.2-16-.08-24.06-.23s-16-.35-24-.62c-3.7-.13-7.38-.49-11.41-.77l1.6-2.6c-10.2-1-10.89-1-15.52.2,2.18.16,3.63.16,5,.38a27,27,0,0,1,3.26.9c-9.58.7-18.84.64-28.1.58-2.31,0-4.68,0-4.83-2,1.54-.51,3-1.37,4.54-1.39,4,0,4.79-1.49,5.51-3.75-3.49-.09-6.46-.13-9.41-.27-.48,0-.91-.48-1.71-.94l6.13-.43-1.47-2.8,21.61.66-9.22,2.93c3.61.69,7.14,2,8.33.24,2.61-3.82,6.38-4.14,11.89-2.94.89.2,2.26-.56,3.46-.75s2.7-.27,4.06-.39c-.81,2.17-1.5,4-2.16,5.76,5.31,1,6.42-2.62,10.22-3.22,4,3.35,5.83,3.49,11,.7l-3.15-1.13a52.42,52.42,0,0,0,7.51-.67,73.84,73.84,0,0,1,17.42-1.68c2.84,0,5.69-.69,9.24-1.16l1,2.81a14.9,14.9,0,0,1-13.87-.65l-3.93,2.94a24.76,24.76,0,0,0,3.64.42c11.61-.65,22.77,1.62,34.2,1.92a95.45,95.45,0,0,0,12.37-1c2.59-.27,5.1-1,7.68-1.11,3.23-.1,6.54.54,9.76.4,3.76-.17,8,.44,11.53-1.38l-2.43-2c5.75,0,11.17-.56,15.5,2a8,8,0,0,0,2.83.49c7.42.62,14.84,1.27,22.28,1.77a61.34,61.34,0,0,0,6.64-.33l-3-2.14c2.94-.2,6,0,7.11.94,2.35,2,5.25,2.6,8.93,2.76,1.3.05,3.43.53,3.65,1.05,2,4.89,10.19.5,13.44,3.37a9.32,9.32,0,0,0,.9-.28l-.72-3.45c6.08.21,11.47.33,16.35,2l-1.74,3.91,18.72,1.3c.11-.21.22-.41.34-.61L1394,667.75l.63-1.28,16.28,2.14c.28,1.42.45,2.32.62,3.21l1.86.87,4.37-3.11,6,1.07c.23-.29.46-.59.7-.88-2-1.07-4.56-1.93-5.82-3.26-2.1-2.21-4.93-2.6-8.25-1.84-4.69,1.08-8.75.44-13-.8-2.66-.76-5.78-.93-8.67-1.41-1.23-.2-2.42-.5-3.9-.81,6.22-.88,11.78-1.82,17.45-2.38a12.39,12.39,0,0,1,6.08.91c2.33,1.28,4.45,1,7,.74,2.15-.24,5-.82,6.48-.25,8.35,3.1,17.83,3.78,27,5.09,2.76.39,4.71.94,4.63,2.94a19.66,19.66,0,0,0,.32,3.16c3.39.07,6.39,0,9.37.2s5.88.59,8.52-.94c.78-.45,2.77-.3,4.15-.19,4.43.37,8.76,1.06,13.28,1.23,2.56.11,5,1.16,7.52,1.74,3.74.86,7.45,1.78,11.27,2.5s8.46.61,11.45,2c4.63,2.08,8.15,1.46,12.09-.5l5.27,2.86a25.88,25.88,0,0,1,4.87-1.14c4.39-.15,6.58,1.83,8.77,3.74,2.94,2.59,2.92,2.53,7.65,1.15a55.21,55.21,0,0,1,5.57-1c1,3.84,4,5.63,8.84,5.57l6.24-4.68-7.08-4.51-6.32,2.69a25.51,25.51,0,0,0-3.43-1.49c-1-.26-3,0-3.12-.3-1.42-2.44-4.56-2.84-8.22-3.31-3.3-.42-7.18-1.16-9.32-2.58-5.35-3.57-13.75-2.35-19.33-5.21-6.07,1.23-11.23-.43-16.58-1.79-1.46-.38-3.57.29-5.14,0-5-.94-9.78-2.1-14.65-3.18.34-3.07-3.91-3.21-7.25-4.07,5.73.07,11.65-.25,16.53,1,7.95,2,16.28,2.49,24.42,3.69,6,.89,12.27,1.31,17.79,2.81,6.89,1.88,15.24,1.13,21.18,4.66,1,.62,3.36.66,5.07.63a32,32,0,0,1,10,1.44,20.62,20.62,0,0,0,12.85.11l-6.34-3.36a18,18,0,0,1,13.44.43c2.15.88,6,.58,5.91,2.86-.13,2.84-4.66,1.38-7.61,2.3,1,.84,1.58,1.86,2.62,2.09,4.92,1.08,10,1.89,15,2.91a24.19,24.19,0,0,0,10.17.19,16,16,0,0,0-8.22-5.13,90.85,90.85,0,0,1,13.22.07c4.3.29,7.69,3.06,12.56,1.89l1.41-3.87c-2.82-.54-5.44-1-8-1.54-1.36-.27-3.16-.34-4-.91-4.84-3.43-11-3.94-17.82-3.39-3.56.29-6.89.12-9.46-1.52l5.67-4.64c-5.28-.37-9.19-.57-13.07-.93-2.88-.26-6.42-.18-8.44-1.18-4.4-2.19-9.34-2.63-14.55-3.29-5-.63-9.71-2.12-14.59-3.15a15.71,15.71,0,0,0-3,0H1546c3.5-5.23,10.22-3.71,16-3.65-.06-1.1-.12-2-.17-2.76,5.1-1.88,7.33,1,10.5,1.81a69.06,69.06,0,0,1,10.8-.75c4.94.12,9.87.48,14.78.87,3.4.27,6.8.62,10.09,1.18,8.17,1.38,16.27,2.72,23.69.52,3.89,1.47,7.13,3.5,10.84,3.89,4.7.49,9.77-.35,15.13-.63.1-1.23.21-2.49.3-3.61l16.53,1.14a10.83,10.83,0,0,0,4.54.39V653l19.39,1.34c.09-.31.17-.62.26-.93-6.56-.87-13.19-1.56-19.67-2.6C1679,649.54,1679,648.43,1679,647.74ZM1515,614c-.23.65-.1,1.64-.75,1.9-2.42.95-4.12.23-6-2.37Zm32.89-116.82c-5.17,1.3-5.29,1.33-6.13-.76ZM1345.39,386.54l1.53,1.42-4.26-.32C1343.59,387.35,1344.45,386.74,1345.39,386.54ZM1288,368.94c.22.55.45,1.1.67,1.64l-1.61.23-.54-1.7Zm-45.46-2.58a.44.44,0,0,1,.3.29c0,.1-.15.21-.27.36l-3.45-.06-.11-.45C1240.16,366.45,1241.34,366.39,1242.51,366.36Zm-15.1-1.57a8.6,8.6,0,0,1,1,1.18l-3.63.68-.58-.92C1225.29,365.4,1226.31,365,1227.41,364.79Zm-14,2-4-1.65c4.89-1.48,4.89-1.48,9.72.6l-2,1.39c.3.23.55.59.78.59,1.84,0,3.68-.2,5.52-.23a17.12,17.12,0,0,1,4.76.19c1.14.38,1.64,1.49,3.21,3.07a78.84,78.84,0,0,1-7.93-.71c-6.85-1.44-6.81-1.5-12.65-.08l-4.45-2C1207.65,365.91,1210.46,367.25,1213.37,366.77Zm-15-2.22c.17,2.58-2.44,3.39-5.7,4l2.77-2.73-9.22-1.17,0-.27ZM364.54,445.46c-.24-3.23-.24-3.23,5.27-3.2Zm21,81.86a5.37,5.37,0,0,1-3.28-1.61l6.67.94C386.67,527.12,386,527.41,385.53,527.32ZM403,484.18c-8,1-8,1-11.21-.77ZM390.68,528l.1-.74,4.77.33c0,.2-.05.4-.08.6Zm7.05-4.19-.06-.5,4.23-.28c0,.36.05.72.07,1.07ZM401,479.33l12.5,1.61C405.67,482.65,402.78,482.26,401,479.33Zm832.83,194.44,4.09.64-.25.72-4.16-.4C1233.66,674.41,1233.77,674.09,1233.87,673.77Zm-24.66-1.27c0,.2,0,.41,0,.62l-4,.12.15-1Zm-11.39-.45c-7.52,2.64-14.41,1.1-21.31,0C1183.31,670.77,1190.16,671.25,1197.82,672.05Zm-108.63-20c-11.8.23-23.74,0-35.8-.91,1-2.61,3.67-2.56,6.16-2.49,10.6.31,21.26-1,31.84.76a47.17,47.17,0,0,0,10.37.12c.84-.06,1.68-.1,2.51-.14l-.22.29a75.14,75.14,0,0,0,8.15-.36,56.05,56.05,0,0,1,12.08,1.66C1112.72,653,1100.86,651.82,1089.19,652.05Zm28.57,2.33a7.81,7.81,0,0,1-1.93.23c-.27,0-.39-.57-.58-.88a13.53,13.53,0,0,1,2-.19C1117.41,653.54,1117.55,654,1117.76,654.38Zm-48.94,0c-2.8,1.19-2.8,1.19-5-.13Zm-75,1.26-3.59.59c-.13-.39-.56-1-.32-1.14a6.91,6.91,0,0,1,2.47-.67C992.67,654.36,993.11,655,993.84,655.61ZM1183.3,390l3.12.14,0,0c4.15.64,9.1,1.61,11.82.59q1.62-.6,3.21-1.05l-.39.74c4.49-.33,8.63-.07,13.09-.83a24.37,24.37,0,0,0,3.51-.9,65,65,0,0,1,7,1.36,5.48,5.48,0,0,0,.94.12c-.13.78,0,1.54,1.33,2.29,1.52.87-2.35,3.11-5.28,2.66s-5.61-1.63-7.39,1c-.19.29-2.69,0-4.18,0l2.73-2.43-4.46-.07,0,0h-1.74c-3.87-.07-7.45-.13-11-.14a11.7,11.7,0,0,0-2,.18l-11.2,0c-2.54-.63-5.28-.29-8.68-.14l3-2.32c-2-2.27-4.19-.68-6.25-.12-.56-.67-1-1.73-1.58-1.77h0a73,73,0,0,1,14.2.41Zm81.45,19.23a13.47,13.47,0,0,0,5.1,0,26.51,26.51,0,0,1,17.83,3.35c-4.73.14-9.69-.67-14.53-.93-1.86-.1-3.74-.11-5.61,0-1.61.06-3.22.14-5,.23-1.62-.16-3.24-.32-4.86-.5L1260,410l-5.84-1,3.93-.63A21.85,21.85,0,0,1,1264.75,409.2ZM1366.15,424l-.22,0-.35,0c.41,0,.82-.05,1.22-.09Zm221.69,133-.58.71-1.91-.47-1.33-.6h0l-.1-.9,0-.05Zm-4.78-.47.45.1H1583ZM850.54,635.06c10.45-.71,20.88-1.46,31.2-2.62q6.62,0,13.24-.3c4.17-.16,5.35,1.05,5.08,3.55C893,637.21,858,636.8,850.54,635.06ZM717.8,655.62c-4.86,1.6-10,.93-15.08.6A34.79,34.79,0,0,1,717.8,655.62Zm402.58-264.86c.32.13.62.27.67.44s-.48.55-.84.93l-1.51-.64.88-.69Zm45.64,1-4.73-.9c0-.14,0-.29,0-.43a47.56,47.56,0,0,1,6.38-1.11C1166.62,389.84,1168.2,391.43,1166,391.8Zm188.9,33c.54.58-1,.93-1.5,1.39l-.26-.31A6.67,6.67,0,0,1,1354.92,424.8Zm58.33,22.51-2.47.2c-1.94.16-3.92.12-5.88.18l-.33-.93,5-1.6,1.67.21A6,6,0,0,0,1413.25,447.31Zm67.1,80.94-.17-.18,2.28.16h0l3.73.41Zm-5.16,1.25.23-.26c-.11,1-.1,1.55.15,1.84-1.85-.24-3.66-.61-5.41-.89.6-2.43,3-2.5,5.13-2.41A6.63,6.63,0,0,0,1475.19,529.5Zm54.62,14.07c-2,1.88-2,1.88-5.43.75ZM1214.92,409.74l-1,.41-1.21-.16.36-.28Zm135.42,70.57,7.81.54C1355.54,480.72,1352.94,480.55,1350.34,480.31ZM1435,510.57l-2,2.22a11.92,11.92,0,0,1-1.38-.52c1-.25,1-.92,1.14-2.35l-2.07.76a3.91,3.91,0,0,1,2.64-1.2A3.8,3.8,0,0,1,1435,510.57Zm-132.24-81.66c.42.26.84.52,1.28.75-1.84.72-2.77.47-7.25-.75Zm118.51,80.65,0,.06-.28.05.19.06-1,1.22-2.69,1.09c-.31-.24-.64-.47-1-.69l0-.71c-.52-.05-1-.11-1.58-.19Zm-209.67-73.31,4.11-.33,0,.6-1.05,0,.22.27c-.37-.07-.77-.12-1.21-.18-.67-.08-1.35-.14-2-.2A.59.59,0,0,1,1211.58,436.25Zm-77.22-13.72,5.88,1.43c-5.43.1-10.89,1.16-16.35.32l.32-.34a16.38,16.38,0,0,0,6.29-1.39Zm17.54,3.8a20.4,20.4,0,0,0-3.18-1.32,6.79,6.79,0,0,1,4.37.91Zm-144.12,8.28.59-.06-1,.13-.07,0Zm24.71-10.15c7.23-.25,14.48-.37,21.75-.52a5.91,5.91,0,0,1-.91,2.39l-1.68.1c-2.69-.3-5.39-.41-8.09-.44.09-.87-1.24-1.32-3.53-1.32h-7.67s0-.07.05-.1A1,1,0,0,1,1032.49,424.46Zm164.43,19.23,0,.05h.11c1.7,2.07-.53,2.61-3.92,3.21C1194.38,445.51,1192.28,443.17,1196.92,443.69Zm-176.05-7.18a59.35,59.35,0,0,0,7.37-.61l.2.2c-3.5.27-7,.48-10.47.88a40.11,40.11,0,0,0-4.8.84c.17-.27.34-.56.52-.89L1004,439l.14,0-5.46.19c3.19-.9,6.39-1.82,9.69-2.56l-2.76-.29a13.42,13.42,0,0,0,3-.81C1012.74,436,1016.8,436.36,1020.87,436.51Zm23.07-6.4-1.56.11-.05-.15Zm13.63.91c5.46.3,10.28-.76,15.26-1.44a15.81,15.81,0,0,0,5.82-.63q3.7-.18,7.43-.33a10.07,10.07,0,0,0,3.47,1.33c3,.16,6,.23,9,.27,0,.6,0,1.14,0,1.64l-3.54,2.06c-.59-1.76-1.92-2.08-4.22-1.29-.3.1-.34.49-.66,1l4.23.64-3.27,1.9,9.83,1.18c-5.67,1.1-11,.82-12.38,4.23a5,5,0,0,1-1.48-.34c-3.18-1.42-6-1-9-.49l4.31-1.24c-7.55-.83-8.46-.83-8.49,1.62q-2.27,0-4.53.15a6.84,6.84,0,0,1-1.69-.56c-2.31-1.21-3.66-.95-5.16,0-.18-.36-.36-.72-.53-1.08.8-.15,1.65-.26,2.48-.35,3.56-.39,7.26-.3,10.89-.37,6.69-.12,13.42.07,20-1.09-3.72-.6-7.43-1.05-11.17-1.38a23.87,23.87,0,0,0-3.77.12c-2.75.2-5.48.57-8.22.63l-11.28.22-.13-.26c1.55-.38,3.08-.88,4.64-1.29a4.89,4.89,0,0,0,.73-.26l5.24,0a18.82,18.82,0,0,0-3.36-1,4.46,4.46,0,0,1,4.7.1c.49.26,2.73-.69,4.15-1.08a70.34,70.34,0,0,0-14.44-1.8c-4.41-.13-8.83-.07-13.25,0A35.83,35.83,0,0,1,1057.57,431Zm82.28,8.88-7.1,0,1.53-.6-2.89,0a12.26,12.26,0,0,0,1.71-.5,6.71,6.71,0,0,1,3.11.06l3.29.76Zm-77.19,1.32,3.69.26c-1.15.07-2.29.16-3.43.26C1062.83,441.57,1062.75,441.4,1062.66,441.22Zm-15.81-5.51c0,.34,0,.7.05,1.09l5.18.08v0a12.65,12.65,0,0,0,2.41.73c-6.94.12-13.89.24-20.82.43l-.8,0,9.68-2.31Zm-9.47,6a16.25,16.25,0,0,1,3.78-1.19,20.38,20.38,0,0,0,7.51.92l.25.09c-3.74.18-7.61,0-11.33.29Zm-8.22,2.23c-.69.28-1.41.55-2.14.79a19.23,19.23,0,0,0-5.95.95l-1,.08-.61-1.06c.49-.19,1-.41,1.46-.64C1023.61,443.91,1026.4,443.88,1029.16,444Zm231.24,30.28a8.35,8.35,0,0,0,4.53-3.6l.4,0c0,.28-.07.57-.1.86,1.84.54,3.68,1.08,5.57,1.53-3,.36-5.93.72-8.85,1.09A10.83,10.83,0,0,1,1260.4,474.24Zm-21.4-23c-1.85.21-3.69.39-5.5.62a16.74,16.74,0,0,1-2.86-1.46,71.13,71.13,0,0,1,7.66.74Zm-37,.2c-1,0-1.94-.09-2.9-.15l.35-.38,2.72-.14C1202.15,451,1202.08,451.17,1202,451.4Zm-158.23-1.71-2.76-.2-4.21,2-.72.26.07.05-1.51.73h-4.63c-.23-.45-.47-.89-.71-1.33l-10.39.71c-.44-.39-1.38-.55-3.31-.43a5.08,5.08,0,0,1,.5.63l-6.49.44-4.37,0c-3.84,0-7.68-.17-11.53-.3,1.39-.21,2.78-.4,4.17-.6,3.86-.57,7.64-.88,9.48-3.75a6.06,6.06,0,0,1,3.26-1.88l2,.71.63-.25-2.93,3.16,18.4-1.86-1.16.71a21.62,21.62,0,0,0-8.56.77l6.93.23-1.31.8c3-.09,6.42.31,7-.3,2.16-2.26,5.44-2.7,8.79-3a19.91,19.91,0,0,0,3.21.67l.81,1.14c1.6-.07,3.21.21,4.88.29A49.24,49.24,0,0,0,1043.81,449.69Zm50.35-8.26c-.76,0-1.59.09-2.42.15l4.57-.43A14.56,14.56,0,0,1,1094.16,441.43Zm-42.11-4.67a8,8,0,0,1-.2-1.06l6.17,0C1055.89,436.06,1054,436.4,1052.05,436.76Zm-21.57,1.35q-4.65.13-9.3.3c2.8-.47,5.63-.82,8.46-1.13Zm172.38,11.12-1.92.06.46-.5,1.67.12C1203,449,1202.92,449.12,1202.86,449.23Zm-40.91.5c-1.92-.19-3.85-.37-5.77-.52l3.48-1.16Zm-84.29,4.14-13.16-.55,3.58-3.07a111.23,111.23,0,0,0-16.3-1.27,9.45,9.45,0,0,0,3.48-1.2,8.67,8.67,0,0,1,2.55-.85,12.55,12.55,0,0,0,5.8.63c2.31,2,4.83,1.39,8.77.35l-7.3-.5a46.23,46.23,0,0,1,7.21-.65l.49,0-.27.22,4-.16c2.18,0,4.35,0,6.53,0,.21.62.42,1.24.62,1.86l1.92-.26-.9-1.62c1.11,0,2.22,0,3.32,0,0,.12-.07.24-.1.36l3.46.05c.81.42,1.69,1.12,2.85,1.73-3.6.68-6.14,1.22-8.73,1.64-3,.49-4.72,1.36-3.54,3.22Zm21.58-13h0l12.8-1.19-7.7-1.59c4.59.27,8.92.51,13.2.79a4.42,4.42,0,0,0,.17,2.41l-.62.2,1,.48a3.69,3.69,0,0,0,1.58,1.08C1112.29,442.24,1105.78,441.49,1099.24,440.88Zm26.45-6c0-.88,0-1.77,0-2.69a10.57,10.57,0,0,0,4.33,1.19A10.83,10.83,0,0,1,1125.69,434.87Zm-4.29-6.63-2.3.12-.51-.22a5.86,5.86,0,0,0,2.36-.46l.37,0C1121.35,427.85,1121.38,428.05,1121.4,428.24ZM957.82,439.45a23.87,23.87,0,0,0,2.22.88c-1.45.14-2.87.32-4.25.58a37,37,0,0,1-9.87.61l-1.75-.14-4.66-1.67c.77-.07,1.53-.18,2.27-.3a29.51,29.51,0,0,0,13.72-.51l-2.47-.61.59-.1A14.33,14.33,0,0,1,957.82,439.45Zm301,8.27c-.94-.05-2,0-2.92,0h-.29A8.65,8.65,0,0,1,1258.86,447.72Zm-23.89-.23a7.46,7.46,0,0,1-1.37-.71,14.28,14.28,0,0,1,1.91.7Zm-7.69-1.65.64,1c-.37.18-.74.43-1.1.64a21.14,21.14,0,0,0-3.59-.34c-3.08-.13-6.39.3-9.23-.23a18.12,18.12,0,0,0-7.54-.17c-.77-.39-1.74-.91-3.13-1.53,4.18-.15,7-.76,9.07-.23A43.06,43.06,0,0,0,1227.28,445.84Zm-30.23-2.39c.07-1.27.06-2.58,3.09-2.38A4.71,4.71,0,0,0,1197.05,443.45Zm-1.43,5.17-.12.8c-3.06.06-6.08.09-9.07.14h-1.13v0c-4.77.09-9.48.21-14.14.52.47-.16.93-.32,1.4-.46l-.87-1-8,.78a12,12,0,0,1,2.77-3C1176.17,447.12,1186.12,447.12,1195.62,448.62Zm-7.63-4.71c-1.67,1.79-3.58.51-5.13-.51a4.76,4.76,0,0,0-1.16-.42v0c.49-.28,1.12-.55,1.21-.87.42-1.64,1.9-2.76,4.27-1.69A2.57,2.57,0,0,1,1188,443.91Zm-32.9.35a2.11,2.11,0,0,0,0,.66c1.52.29,3.07.53,4.63.73-.9.45-1.79.91-2.66,1.38-1.47.8-3.61,1.13-5.08,2a47.17,47.17,0,0,0-11.31.88l-2.43-1.45c-1.6.44-3.44.81-5,1.42a10.69,10.69,0,0,1-3.46.9,4.78,4.78,0,0,0-2.91-1.28h-.8a17.57,17.57,0,0,0-4.23-.26c-1.77,0-3.53.14-5.29.25l-7.74,0a2.64,2.64,0,0,1,0,.4c-2.77.17-5.56.33-8.06-.71a23.8,23.8,0,0,0,2.4-.51,6.26,6.26,0,0,1-1.24-1.3c5.28-3.1,13.21-2.22,20.47-3.79,2.52.19,5.51-.16,7.67,0h0c3,2,3,2,6,.62l-5.82-.62c6.1.34,12.23.5,18.36.61.11.21.23.4.27.39.72-.09,1.44-.22,2.16-.35Zm-3.29-3.47,0,0h0Zm-15.45-5.92-3.3-.1c-.08-.26-.16-.52-.25-.78l2.75-.62c0-.29.1-.58.14-.87l-7.35-.18c-.1-.22-.2-.43-.31-.64a12,12,0,0,1,3.14-.81c4,.12,8.23.93,10.46-2.19.19-.27,1.77-.16,2.77-.23-.4,3.82-.4,3.82-4.37,4.55.27.29.53.59.88,1Zm-70.56-11.21,4.38.3c.53.5,1.16,1.11,2,1.82l-.15.12-6.53-.1.31-.16-2.39.12h-.1a8.77,8.77,0,0,0-1.19-.4l-.37-.09a3.91,3.91,0,0,1-1.8-1.45ZM955.13,433h2.63l-.07,0ZM1245,447.09a14,14,0,0,0-1.69.15,1.67,1.67,0,0,1,0-.63C1243.83,446.78,1244.39,446.94,1245,447.09Zm-43.59-6.85a5.93,5.93,0,0,0,1,.48,11,11,0,0,0-1.71.23h-.05a2.55,2.55,0,0,1,.72-.74Zm-21,1.57-5,.88a7,7,0,0,1-1.88-.9c-2.21-1.5-4.74-1.66-7.81-.32a9.74,9.74,0,0,1-2.63.65H1162a36.39,36.39,0,0,1-7.51-.65,3.11,3.11,0,0,0,.93-.88,4,4,0,0,1,2.62-.81c5.25.65,10.63-1.36,15.83.33a7.59,7.59,0,0,0,2.52,0l.8-.07A8.88,8.88,0,0,1,1180.39,441.81Zm-19.15-8.34c0-.41-.07-.79-.11-1.18l.9.13c0,.36-.09.73-.13,1.09Zm-13.07-.9-.44,0a17.38,17.38,0,0,1,5.59-1Zm87.37,5.48c-1.09-.06-2-.1-2.73-.11-.7-.41-1.09-1.36-1.83-3.22l6,3.11Zm-87.19-11.55,3.48-.15-.37.13Zm142.78,7.55a7.44,7.44,0,0,0,.25.95c-2.23.18-4.23.68-6,.43a42.32,42.32,0,0,0-9.54-.09,7.08,7.08,0,0,0-.9-.16,1,1,0,0,0-.6.28l-.73.07c-3.58-.29-7.19-.48-10.87-.45-6,0-12.19-.95-18.17-1.8s-11.63-1.79-17.64-2.07c-2.42-.11-4.84-.35-7.25-.29-4,.11-8.45,1.19-12,.48q-2.65-.54-5.33-1l-1.28-1.48c-.2.43-.38.82-.54,1.18a138.82,138.82,0,0,0-21.56-1.57c-4.36,0-8.21-1-12.19-1.48l-.13-.05c5-.27,9.73-.52,14.41-.82a7.5,7.5,0,0,0,1,.11c2.32,1.53,5.45,1.49,15.09,1l-1.91-.53a35.58,35.58,0,0,0,7.16-.64c2.29,1.71,5,2.38,9,2.37,3.33,0,6.65.12,10,.3,3.45,1.11,6.71,2.08,10.77,1.18a16,16,0,0,1,6.76.15c.85.23,1.71.42,2.57.58,3.85,1.35,8,1.27,12.4,1.53C1266.37,433,1278.66,434.15,1291.13,434.05Zm-171.29-31.21-.48-.19.55.1A.71.71,0,0,1,1119.84,402.84Zm-3.78,2.61c-.85-.23-1.7-.46-2.54-.66l5.16-.78A7.4,7.4,0,0,1,1116.06,405.45Zm202.56,26.19c-.88.24-1.75.5-2.61.76l-2.66-.22a3.81,3.81,0,0,1-1.1-.47c.22-.69.43-1.36.7-2.24l2.84.2A7.82,7.82,0,0,1,1318.62,431.64Zm-556.68,6.55.13.28c-.41.17-.83.34-1.23.53l-2-.37.49-.08ZM1322.59,431c3-2.22,3-2.22,7.4-1.81l.15.89Zm-157.43-26.61a16.42,16.42,0,0,1,1.69-.46,5.49,5.49,0,0,0-.52.62A5.12,5.12,0,0,1,1165.16,404.37Zm161.67,181.86c.12.43.24.86.35,1.29l-8.09.72C1321.25,584.77,1324,585.49,1326.83,586.23Zm23.44,8.84c.51,0,.94.46,2.12,1.1a20.47,20.47,0,0,1-3.35.16c-.37-.05-.54-.63-.8-1A8.64,8.64,0,0,1,1350.27,595.07Zm88.3-78.82h0a3.07,3.07,0,0,1-1.38-.19,9.81,9.81,0,0,0-4-1h0c-3-.15-5.76,1.05-8.75,2-1.7-1-3.81-1.71-4.74-2.81q-.35-.41-.72-.78l3.33-.47,17.92,3.19c-.57,0-1.14.11-1.65.13Zm5.56.58.27,0,2.33.42-3-.38Zm-9.24-3.58,3-1.53c1.82,1.8,3.89,2.7,7.66,1.64,2.66-.75,3.81-.71,4.94.28a1.74,1.74,0,0,1-.66,1.24C1445.33,513.69,1439.56,514.14,1434.89,513.25ZM1353,482.63h1c-.12.2-.24.42-.37.67Zm6-1.74.18-1c-3-.55-6-1.52-10.41.24-1.54-.17-3.07-.37-4.59-.61l.35-.16,1.36.13-.73-.41a55.07,55.07,0,0,1,6.22-2.19l1.52.1a30,30,0,0,1,3.77.92c.16.06.66-.28,1.56-.8,1,0,2-.06,3-.14a38.41,38.41,0,0,0,13.76-1l-8.64-2.29,4.8-.86c.64,0,1.25,0,1.84-.06l13.81.91.3,1.47-14.57,5.28a8.82,8.82,0,0,0,1.49.82l-10-.69c.75.23,1.5.44,2.24.64ZM1237.7,408.16l-7.46.63c.7-1,1.25-1.77,1.8-2.56.41.56,2.49.14,3.69.33v-.07Zm-11.51-.82c0,.28.09.57.13.85a20.42,20.42,0,0,0-6,1.72l1.82-2-6.61-.1,1.27-1Zm-20.71-2.95c2.4-1.38,4.72-1.94,7.74.13ZM1177.39,403c3.49-.76,6,.46,8.71,1.24a75.79,75.79,0,0,0-14.4.66l-1.08-.06h0l.32-.95,7.33-.55c-.52,0-1.06-.11-1.6-.2C1176.9,403.12,1177.15,403.08,1177.39,403Zm-44.9-12.35,2.38-.34c3,1,3.44.95,5.5.19.12.21.24.4.34.56C1139.85,392.32,1134.18,391.94,1132.49,390.67Zm4.12-.6,3.2-.46.44.71Zm-57.46,1.61a5.36,5.36,0,0,1-3,.2ZM728.76,655.06l.09.64c-1.1.06-2.19.14-3.29.14-.1,0-.21-.43-.31-.66ZM847.37,636c.23,1.08-1.53,1.68-3.74,1.33a20.81,20.81,0,0,0-4.4-.06,8.49,8.49,0,0,1-5.15-1c4.27-.32,8.55-.61,12.84-.9A1.35,1.35,0,0,1,847.37,636ZM1266.2,595c0,.25,0,.51,0,.77l-3.42,0,0-.72Zm88.33-2.77-1-.55,2.26-1.74,1.46.72ZM1488.87,532a70.78,70.78,0,0,1-11.12-.67l.36,0c-.5-.64-1.07-1.36-2.1-2.7.24-.27.46-.52.67-.74l1,.06a13.83,13.83,0,0,0,2.75.45,22.77,22.77,0,0,0,9.19,3.6ZM1447,520.49l-4.55-1.65c.16.54.29,1,.39,1.34l-.51-.07-2.38-.36a6.63,6.63,0,0,1,1.94-2.11c1.9.62,3.66,1.52,6.2.41.49.75.72,1.72.31,2.08l-.23.19-1.18.08Zm8.1-9.37a5.17,5.17,0,0,1,1.51.36,4.85,4.85,0,0,1-1.36.84.75.75,0,0,1-.4,0A11,11,0,0,0,1455.12,511.12Zm16.51-7.56-.1-.05,7.38-.26C1476.32,504.67,1476.1,504.7,1471.63,503.56Zm5.88-3.42c-.07-.19-.14-.37-.22-.56l.89-.2.43.81Zm26.34,4.77,2.76.31A9,9,0,0,1,1503.85,504.91Zm-126-18.53-.62-.74a11.2,11.2,0,0,0-2,.6.14.14,0,0,0,0,.06l-7.51-.23c-2.87-.09-6-.13-7.06-2.58l-4.26,1.87c-.31,0-.62.07-.93.12l-1.71-1.9,4.26-1,13.58-.17a37.29,37.29,0,0,0,7.58.57l.37.11-.81.21,1.13,1.08,1.63-.7c2.15.7,4,1.56,4.61,2.95Zm-88.29-74-.72.06a3.16,3.16,0,0,1,1.62-.8c2.71,0,5.41.33,8.12.41,1.38.05,2.75.07,4.12.1C1298.55,413.24,1293.85,412,1289.58,412.41ZM1244.09,401c.78-2.73,1.14-2.84,5.53-1.68Zm-16.72,3.7-1.32.1-.84-1,4.72-.2,0,.17A6,6,0,0,0,1227.37,404.69ZM422.05,543.32c.5.09,1,.17,1.51.24-.09.2-.17.39-.25.59l-1.77-.12A4.68,4.68,0,0,1,422.05,543.32Zm-6.38,7.83c-.3-.34-.57-.65-.82-.95q.73.15,1.47.24C416.1,550.68,415.88,550.91,415.67,551.15Zm8.84,13.94a9.62,9.62,0,0,1-1.89-.11l1.94-1.89C424.56,563.76,424.55,564.42,424.51,565.09Zm623.4,84.64c-3,.79-5.7,2.84-10,1.15C1041.14,648.14,1044.84,650.24,1047.91,649.73Zm345.59-61.41-4.29-.7c.15-.3.3-.59.44-.89l4.22.86C1393.74,587.83,1393.62,588.08,1393.5,588.32Zm24.08,4.93a13,13,0,0,1,5.71,2.1L1423,597Zm10.73-4.47c-.34-.07-.43-.6-.63-.93a13.94,13.94,0,0,1,2-.1c.21,0,.32.49.55.88A7.56,7.56,0,0,1,1428.31,588.78Zm5.15,1.59c3.09-1.58,3.09-1.58,6.7.09Zm-12.12-14.65c10.54-.39,20.28,1.59,30.45,3.19-.2,1.1-.4,2.18-.64,3.45C1441.84,578.3,1431,578.15,1421.34,575.72Zm68,16.79c.55.52,1.05,1,1.54,1.36-3.83,1.87-8.46,2-13.73,1.37l-.44,0-.94-.26Zm-22.94,2.39a25.93,25.93,0,0,1-4.35-.13c-5.45-1.11-10.82-2.36-17.3-3.8C1453.71,589,1460.19,591.34,1466.42,594.9Zm-13.22-17.33-.6-1.61,5.05-.44.39,1.2Zm85-16.94a5,5,0,0,1,1.52-2.44c2.33.5,4.22,2.17,6.57,2.22C1543.61,560.62,1540.92,561.11,1538.16,560.63Zm18,3.72c.35-1.91.7-3.78,1-5.42l1.12-.08c-.58,2.28,1.82,3.52,4.13,4.85a6.45,6.45,0,0,0-.69.47A4.24,4.24,0,0,1,1556.19,564.35Zm16.68,6.22,3.93,2.26-3.14,1.75C1573.37,573.12,1573.21,572.3,1572.87,570.57Zm18.68,2.34,3.59.18a14.37,14.37,0,0,1-.66,1.45l-4.19-.58A5.17,5.17,0,0,1,1591.55,572.91Zm4.59-5.85c-.41.19.8,1.7,1.27,2.6a14.8,14.8,0,0,0-3.59-.52l-3.76-1.92c.15-.83.34-1.83.52-2.81-5.69-.89-5.69-.89-9.72-.26,1.35,1.09,5.72-.19,4.94,3.07-2.31-.3-4.5-.64-6.73-.87-1.38-.14-3.54-.48-4.08-.09-3.42,2.51-5.6.3-8.09-.56,7.36-1.59,14.12-3.7,21.34-4.27a10.13,10.13,0,0,0,2.77.32c4.32-.18,6.46.91,8.56,3.48a7.44,7.44,0,0,1,.8-.87l1.65,1A38,38,0,0,0,1596.14,567.06Zm6.07-3.89a9.26,9.26,0,0,1,6.39.25c1.13.37,2.26.73,3.4,1.06l-.66-.06C1608.29,564,1605.26,563.6,1602.21,563.17Zm35.7,7.52a14.11,14.11,0,0,1,3.37-1.26l1.31.08q.33.66.63,1.29Zm-20.79-10.06a4.72,4.72,0,0,1-.64,2.41A9.12,9.12,0,0,1,1614,561Zm-10.33-5.2-1.11.25-.24-.13Zm-44.64-14.27c-.09.41-.17.82-.25,1.22l-6.42-.62C1558,539.73,1560.08,540.13,1562.15,541.16Zm-41.75-8.58a16.57,16.57,0,0,1-9.09,1,4.75,4.75,0,0,0-2.07.39,138.2,138.2,0,0,0-15-2c.34,0,.68-.08,1-.14a8.94,8.94,0,0,0,2.5-.62l9.33,1.23c.11.32.2.65.31,1a9.29,9.29,0,0,1,1.38-.75l5.36.71a15.94,15.94,0,0,0-1.71-1.51A51.45,51.45,0,0,1,1520.4,532.58Zm-16.46-7.4c.49,0,1.5.41,1.48.6-.22,2.31,3.27,1.77,4.86,2l.86.1a2.89,2.89,0,0,1-1.65.82l.06-.46c-5.85-1.06-11.8-1.79-17.8-2.37Q1497.84,525.48,1503.94,525.18Zm4.39-13,2.1-1.14a20.28,20.28,0,0,1,3.34,2.05A11.07,11.07,0,0,1,1508.33,512.19Zm-.49-7.13c0-.41,0-.82,0-1.22l-4.1.14c2-1.21,4-.23,6.68.18A11.52,11.52,0,0,1,1507.84,505.06Zm1-4.78c-1.62,2.32-3.83,1.8-6.48,1.42C1504.86,500.35,1504.86,500.35,1508.81,500.28ZM1456,479.82l.06.22,3.15-.34c1.82-.1,3.65-.24,5.5-.43,1,3.55,1.9,6.57,2.63,9.1a69.83,69.83,0,0,1,7,2.49l-.62.05-1.93-.06a13.22,13.22,0,0,1-2.08-.42c-.11,0-.34.11-.65.33-2.27-.07-4.53-.16-6.79-.3-6.75-.42-13.57-.8-20.15-1.73-2-.28-3.72-.87-5.91-.52a18.54,18.54,0,0,1-3.81.11c-6.58-.29-13.14-.71-19.73-.92q-8.88-.28-17.75-.53l-4.33-2c4.74-1.33,8.57-1.29,12.38-1.37,4.22-.09,9,.08,7.82-3.95l-9-2.83.9-1.52C1420.36,476.3,1437.59,480.27,1456,479.82Zm-32.27-37.49-.3.58c-1.87-.15-3.75-.29-5.64-.4l2.9-.93ZM1388,407.85c-4.42,1.61-4.62,1.6-8.2-.84C1383.2,406.92,1385.93,406,1388,407.85Zm-11.83-.36c.52-.06,1.77.51,1.72.66-.2.49-.83.92-1.61,1.69-.82-.68-1.66-1.07-1.58-1.38A2,2,0,0,1,1376.16,407.49Zm-5.82.92-3.25,3.16C1365.81,409.25,1365.81,409.25,1370.34,408.41Zm-12.91.43c-1.47,2.29-4,2.26-6.82,1.85C1350.6,408.19,1350.6,408.19,1357.43,408.84Zm-22.21,19.53c3.24-1.16,6.52-2.23,11.22-1.35C1342.7,429.15,1338.55,427.47,1335.22,428.37Zm3.85-19.16,8.4-.57c-5.09,2.74-10.55,2.63-16.93.2C1335.15,407.11,1335.15,407.11,1339.07,409.21Zm-10.66-6.5c.42.09.91.55.88.82s-.81.4-1.44.68c-.36-.45-.85-.79-.79-1.08S1328.05,402.64,1328.41,402.71Zm-5.84.32.17.73-3.54.37-.18-.94Zm-19.94-1.51c3.55.44,6.91,1,10.56.61a7.33,7.33,0,0,1,2.23.57c-.1.3-.19.6-.29.9l-23.57.56A16,16,0,0,1,1302.63,401.52Zm-16.8,4.52c.68-.2,2.24,1.07,3.46,1.12,3.74.14,7.51.09,11.26-.06a40.14,40.14,0,0,1,7.78-.05l-4.83,2.65c5.43,1.23,8.73,0,12.54-1.91,1,.73,2.62,1.43,2.68,2.18.13,1.43-2.09,1.36-3.81,1.33-1.45,0-2.89-.08-4.34-.14v-.06c-4-.49-8-1.51-11.88-1.37a91.1,91.1,0,0,1-18.64-1.59l3.46-.32A6,6,0,0,1,1285.83,406Zm-3.46-7.91,1.46.47c.48,1.56-.24,2.56-4.39,2.4Zm-22.31-7h0l3.12,2.39c-5,1.14-8.84,2.92-14.26,1.5a12.8,12.8,0,0,0-3.73-.35l0,0-10.31-1.28a5.66,5.66,0,0,0-1.6-1c-1.86-.75-1-1.81,1-2.69,1.86,1.14,3.73,2.29,6,3.66,1.61-1.29,3.24-2.42,4.52-3.67l.39-.36c3.78-.11,7.57-.2,11.35-.24C1257.75,389.73,1258.9,390.45,1260.06,391.16ZM1183,379.43l-2.57,1.32-3.57,0C1177.37,379.73,1179.19,379.4,1183,379.43Zm-3.28-15.8.09,1.1-7-.11c0-.23,0-.46-.07-.69Zm-19.16,7.53a3.86,3.86,0,0,1,1.18-.24,64.93,64.93,0,0,1,9.76,2.84c-6.42-1.34-9.53,2.92-15.25,2.78-.4,1.4.33,3-.42,4.35-3.44.08-6.87.17-10.31.29l-.55-.23c-2.46-.94-5.51-1.31-8.23-1.91a60.66,60.66,0,0,1,5.31-3.44,19.52,19.52,0,0,1,4.76-1.68C1151.32,372.92,1155.94,372.07,1160.53,371.16Zm-22.82,4.66-3.26-1.41c.44-.4.73-1,1.33-1.15,2.64-.67,5.37-1.21,8.87-2C1143.82,374,1139.66,374.28,1137.71,375.82Zm4.19-9.94c-2.78.61-2.78.61-5.39-.43C1139.42,364.77,1139.42,364.77,1141.9,365.88Zm-7.64,8.48-5,2.42c-.15-2.12-.23-3.25-.34-4.83Zm-9,.45-8.32-1.15,7-2Zm-2.66-14.09-.1.73-3.41-.16c0-.26.06-.51.1-.76ZM1108.24,374l.18.7-3.31.46-.15-1.06ZM414.59,547.89c-.07.16-.13.32-.2.49l-.21-.57ZM405.27,569c2.9-2.83,3.82-6.65,10.19-7.36.77-.09,1.93-.82,1.92-1.25-.05-2.29,3.18-2.9,5.21-4.14.25-.16.09-.58.12-.93l-2.5-.76,4-.23c0,2.21.16,4.36.25,6.47-2.57-.41-4.28.82-6.28,1.89-.56.3-1.13.58-1.69.87-3.31-.45-5.12.4-9,3l2.75,0Zm48.81,58.17-3.68-4.63c.86.23,1.72.46,2.54.71a75.48,75.48,0,0,0,8.53,1.92c-.8.39-1.59.79-2.41,1.17C457.63,627,455.33,627,454.08,627.16Zm56.28,19.51-2.65.46L507,646A18.23,18.23,0,0,1,510.36,646.67Zm49.6,47h0l1.67-.34a9.91,9.91,0,0,0,2.89-1A144,144,0,0,1,585.7,691a11.52,11.52,0,0,0,2.13,1.78C578.49,692.8,569.32,695,560,693.67ZM885.55,681.8a7.1,7.1,0,0,1-1.62-1,4.76,4.76,0,0,1,1.61-.64c.45,0,.94.42,1.62.75C886.46,681.33,885.74,681.86,885.55,681.8Zm26-.47c1.87-1.36,3.7-2.24,6.79.12Zm12,1.73c-.09-.49,1.31-1.55,2-1.56,3,0,3.16,1.32,3.23,2.7C926.33,684.65,924,685.11,923.59,683.06Zm8.28-.65c-.07-.43-.32-1.19-.17-1.22,1.12-.23,2.33-.31,3.51-.44.13.41.27.81.41,1.22Zm5.83.88c5.24.49,6.57-5.4,12.79-2.13C948.05,684.38,942.75,685.44,937.7,683.29Zm51-5.07c-2.46,1.27-6.06.74-8.7-.54.08-.46.16-.91.23-1.37l16.39.11C995.3,679.91,991.13,677,988.72,678.22Zm26.37-1.49,10.32.71C1022,678.32,1021.13,678.32,1015.09,676.73Zm20.76-21a26.88,26.88,0,0,1-5.07-2l.57-1.24c3.85-.06,7.8-.49,11.53-.11,4.56.47,8.94,1.6,13.34,2.44C1054,655.74,1040,656.54,1035.85,655.75Zm110.62,15.62c-3.79,1.94-7.53.71-11,.78-4,.09-8-.19-12-.1a35.68,35.68,0,0,1-12.25-1.62c2.42-.7,3.33-1.22,4.14-1.17C1125.54,669.9,1135.62,670.62,1146.47,671.37Zm-4.35-7.7-8.27.51c1.76,1.7,4.09,1.87,6.55,1.89-7.82,1.62-15.87,1.61-24.25,1.56-.27-1.37-.47-2.35-.67-3.4l-2.37-.16c-3-.17-6.24.93-8.8-1.33-.82-.72-4.21-.48-6.41-.46q-14.12.12-28.21.4c-1.94,0-3.84.57-5.79.71-2.85.2-5.72.25-9.38.4l1.6-3.43c1.51,0,3.25-.23,4.35.16,5.12,1.82,10,1.19,15.1,0a34,34,0,0,1,7.29-.65c8-.07,16,0,24,0,2.51,0,5.05,0,7.51.27C1123.56,661.05,1132.76,662.06,1142.12,663.67Zm3.24-11.7c0-.48,0-1,0-1.45l7.39.2,0,.89Zm108.09,2.87,4.35-.32c.1.27.21.53.31.79l-4.24.73Zm1.24,2.35c2.45-.11,4.93-.12,7.34-.37a76.39,76.39,0,0,0,7.66-1.2,15.16,15.16,0,0,1,12.09,2.18C1272.64,659.25,1263.69,659.46,1254.69,657.19Zm156.1-42.84c-4,3-6.27.74-8.74-.61Zm25.2,4.59c2.76-.74,6.51-.61,14.36.3C1448.14,623.3,1445.09,623.3,1436,618.94Zm50.53,7.23c1.54.25,3.14.77,4.67,1l-10.13.57a5.26,5.26,0,0,1,.85-.8C1483.72,627.11,1485.38,627,1486.52,626.17Zm18.57,6.62.67-.33c2.51.21,5.15.4,8,.64C1511.76,634.22,1510.76,634,1505.09,632.79ZM1477,624l2.36,2.16-1.74.31c.78.07,1.58.18,2.37.28l1.09,1h0l-7-1.09Zm37,9c-.19-.44-.34-.89-.48-1.29a17,17,0,0,1,1.73.52C1514.74,632.5,1514.33,632.76,1514,633Zm6.34,1.2-.4-.6a11.4,11.4,0,0,1,2.4-.6,17.22,17.22,0,0,1,2.82.34c0,.16,0,.31,0,.46Zm82,41.76,3.28,1c-.12.23-.25.45-.38.67l-3.47-.55Zm-24.44-8.65c.38.28-.12,1-.21,1.53l-6.25-.78C1574.06,666.43,1575.94,666,1577.83,667.28Zm71.18-14.6c-.43,0-.76-.55-1.13-.85a5.17,5.17,0,0,1,1.65-.55c.48,0,.94.45,1.66.83A8.14,8.14,0,0,1,1649,652.68Zm5.39-4.61,1,.51c-.37-.13-.75-.26-1.12-.41A.52.52,0,0,1,1654.4,648.07Zm6.77,1.64a9.21,9.21,0,0,1,6.48.24C1665.48,649.94,1663.3,649.91,1661.17,649.71Z" transform="translate(-335.28 -356)"/><path d="M1898.13,566.25c2.08,1.55,3.51,3.57,5,3.61,10.9.22,19.11,4.12,28,7.07q6.78,2.25,13.52,4.53C1933.88,574.35,1907,566,1898.13,566.25Z" transform="translate(-335.28 -356)"/><path d="M1684,580.62c-9.84-2.52-19.78-3.72-30.5.67C1670.43,585.8,1672.9,585.71,1684,580.62Z" transform="translate(-335.28 -356)"/><path d="M1527.79,481.76c-8.32-1.73-15.49-3.41-22.87-4.64-2.26-.38-5.09.48-9.6,1C1507.73,482.66,1517.77,483.77,1527.79,481.76Z" transform="translate(-335.28 -356)"/><path d="M1578.26,515.38l-5.93,1.34-5.75,1.23,3,7.12C1572.87,521.82,1579.6,520.09,1578.26,515.38Z" transform="translate(-335.28 -356)"/><path d="M1609.85,524.48l-11.32-3.56-2.28,1.27,5.67,9Z" transform="translate(-335.28 -356)"/><path d="M1649.17,615.81c5.7,5.28,11.4,6,22.14,3.34Z" transform="translate(-335.28 -356)"/><path d="M1699.59,587.12l13,3.94a8.74,8.74,0,0,0-7.91-7.17C1701.05,583.82,1699.23,585.11,1699.59,587.12Z" transform="translate(-335.28 -356)"/><path d="M1670.59,440c0-.4.08-.8.11-1.21l-13.48-3.52,2.08,6.63Z" transform="translate(-335.28 -356)"/><path d="M1804,541.23c0,.52-.08,1-.13,1.57l14.88.63c-.33-1.64-.54-2.7-.81-4Z" transform="translate(-335.28 -356)"/><path d="M1746,644.47c0,.55,0,1.1,0,1.65,2.84.3,5.77,1,8.49.74,1.47-.12,2.6-1.78,3.87-2.75l-1.56-1.15Z" transform="translate(-335.28 -356)"/><path d="M1553.57,519.45c1-.69.24-2.39.28-3.62l-8.56.42.09,1.82C1547.83,519.23,1549.75,522,1553.57,519.45Z" transform="translate(-335.28 -356)"/><path d="M1626.27,537.12l11.2.29C1628.14,532.3,1628.14,532.3,1626.27,537.12Z" transform="translate(-335.28 -356)"/><path d="M1689.9,600.65c.12-.1-.22-.39-.58-1l-5.71-1.17c-1.94,3.89-1.94,3.89,1.67,5.78C1686.84,603.08,1688.4,601.88,1689.9,600.65Z" transform="translate(-335.28 -356)"/><path d="M1551.84,493.19c-3.29-.93-5.74-3.42-11.09-.54l10.26,2.07Z" transform="translate(-335.28 -356)"/><path d="M1588,604,1595,605c.26-1.87.46-3.34.69-5C1590.54,599.63,1588.88,601.17,1588,604Z" transform="translate(-335.28 -356)"/><path d="M1085.14,450.43l-8-2.92a19.81,19.81,0,0,0-.79,2.27l-6.27-.3c4.22,1.92,5.31,2.41,6.46,1.63C1077.27,451.72,1079.68,451.33,1085.14,450.43Z" transform="translate(-335.28 -356)"/><path d="M1722.63,627.93l9,4.3C1729.77,627.64,1729.77,627.64,1722.63,627.93Z" transform="translate(-335.28 -356)"/><path d="M1650.24,627.25l-.36,1.53,8.63.73.36-1.51Z" transform="translate(-335.28 -356)"/><path d="M1748.16,634.87l-.31.09,0,.11Z" transform="translate(-335.28 -356)"/><path d="M1747,633.11a16.21,16.21,0,0,0-4.57-1c-.23,0-1.44,1.44-1.11,1.72a9.49,9.49,0,0,0,3.75,1.79c.69.16,1.79-.35,2.77-.65C1747.63,634.3,1747.67,633.41,1747,633.11Z" transform="translate(-335.28 -356)"/><path d="M1607.53,507.08c-2-.38-4.15-.67-6.24-1-.12.75-.23,1.5-.35,2.26,2.11,0,4.22,0,6.32-.08C1607.41,508.28,1607.65,507.1,1607.53,507.08Z" transform="translate(-335.28 -356)"/><path d="M1665.77,668.61c-1.6-2.27-4.32-3.11-11.07-2l9.24,3.36Z" transform="translate(-335.28 -356)"/><path d="M1076.39,436.28l11.76-2.28C1082.31,431.77,1080.2,433.14,1076.39,436.28Z" transform="translate(-335.28 -356)"/><path d="M1501.66,484.46l-8.91-.8c-.13.35-.26.7-.38,1l8.76,1.71C1501.31,485.76,1501.49,485.11,1501.66,484.46Z" transform="translate(-335.28 -356)"/><path d="M1627.11,539.87l-8.54-1.46-.84,1.54,8,2.21Z" transform="translate(-335.28 -356)"/><path d="M1686.27,569.86l-7.42-1.87-.95,1.44,6.74,1.83Z" transform="translate(-335.28 -356)"/><path d="M1675.68,631.66l6.24,1.83,1.27-1.32-6.6-1.76Z" transform="translate(-335.28 -356)"/><path d="M1748.15,634.88l-.27.19.33.1C1748.19,635.07,1748.16,635,1748.15,634.88Z" transform="translate(-335.28 -356)"/><path d="M1758.69,638.38l-10.48-3.21C1748.91,638.89,1752.87,639.56,1758.69,638.38Z" transform="translate(-335.28 -356)"/><path d="M1696.7,670.77a8.68,8.68,0,0,0,.09,1.83c2,.11,4.11.07,6.17.07,0-.55.11-1.1.17-1.65Z" transform="translate(-335.28 -356)"/><path d="M1565.14,591l5.24,1.82,1.23-1.45-6-1.13Z" transform="translate(-335.28 -356)"/><path d="M1635.35,666.05l7.27,1,.57-1.52-7.24-1.07Z" transform="translate(-335.28 -356)"/><path d="M1507.17,597.2c-.21.4-.42.8-.64,1.2l6.18,1.66c.33-.57.67-1.14,1-1.7l.75,0c0-.13.08-.27.11-.4l-4.32-.59-.09.29Z" transform="translate(-335.28 -356)"/><path d="M1628.78,614l4.6-1.13c-.2-.38-.39-.77-.58-1.16l-4.76.66C1628.29,613,1628.53,613.5,1628.78,614Z" transform="translate(-335.28 -356)"/><path d="M1830.16,545c-.81,0-1.61.69-2.41,1.08a11.79,11.79,0,0,0,3.1,1.48c.78.15,1.93-.45,3.65-.92C1832,545.66,1831.05,545,1830.16,545Z" transform="translate(-335.28 -356)"/><path d="M1639.81,532.85c.62.46,1.42,1.34,1.83,1.28a13.94,13.94,0,0,0,3.06-1.15l-2.31-1.23Z" transform="translate(-335.28 -356)"/><path d="M1892.19,552l-6.74-1c-.15.26-.29.52-.44.77l6.21,1.83Z" transform="translate(-335.28 -356)"/><path d="M1571.74,435l-4.55-.75-.45,1.06,4.58.73Z" transform="translate(-335.28 -356)"/><path d="M1680,668.7a14.6,14.6,0,0,0-3.1,1.44,18.09,18.09,0,0,0,3.58.74c.7,0,1.42-.68,2.59-1.29C1681.67,669.15,1680.63,668.57,1680,668.7Z" transform="translate(-335.28 -356)"/><path d="M1703.77,572.31l-.09-.89h-5.4l.45,1.29Z" transform="translate(-335.28 -356)"/><path d="M1591.69,521.89l-5,.19-.12,1,4.9.66C1591.57,523.14,1591.63,522.51,1591.69,521.89Z" transform="translate(-335.28 -356)"/><path d="M1818.62,534.19l4.38,1.17.65-.9-4.21-1.31Z" transform="translate(-335.28 -356)"/><path d="M1597.18,547.1a32.83,32.83,0,0,0,3.11,1.19c.2.06.83-.43,1.44-.76a16.34,16.34,0,0,0-2.86-1.09C1598.47,546.35,1597.75,546.86,1597.18,547.1Z" transform="translate(-335.28 -356)"/><path d="M1580.21,509.27l2.22.73,1.53-1.4c-.61-.2-1.45-.66-1.77-.55A8.64,8.64,0,0,0,1580.21,509.27Z" transform="translate(-335.28 -356)"/><path d="M1888,563c1.2.39,2.39.8,3.64,1.11a12.06,12.06,0,0,0,1.39-1.39,35,35,0,0,0-3.83-.69C1888.91,562,1888.43,562.64,1888,563Z" transform="translate(-335.28 -356)"/><path d="M1574,603l-.15.06.32,0L1574,603h0l-.23.06v0Z" transform="translate(-335.28 -356)"/><path d="M542.32,697.2a.57.57,0,0,1,.11-.11l-.28,0Z" transform="translate(-335.28 -356)"/><path d="M621.88,697.79c-.37,0-.71.1,0,0Z" transform="translate(-335.28 -356)"/><path d="M621.88,697.79H622l.08-.06Z" transform="translate(-335.28 -356)"/><path d="M600.78,705.34a.36.36,0,0,1,0-.1l-.11,0Z" transform="translate(-335.28 -356)"/><path d="M879.2,707.15c3.45.89,7.67.65,11.72.93l-1.55-3.94c4.72,2.64,8.94,4.76,13.18,3.3,3.49-1.2,10.35-.2,10.43-4.69-5.31-1.34-12.11,1.18-15.43-2.38-5.94.65-11.2,1.41-16.54,1.77-12.89.84-25.81,1.5-38.73,2.2a4,4,0,0,1-2-.52c-1.83-1.11-3.5-.63-5.47-.1s-4.54,1.3-6.41,1a18.36,18.36,0,0,0-11.83,2c-5-3.49-11.05-2.55-17-2.12a29.34,29.34,0,0,1-4.26-.26c4.26-3,9.41-1.91,14.06-2,3.1-4.13,4-4.69,8.31-3.86,3.63.7,7,1.9,11.08,3.05,4-1.37,10.39-.46,14-3.79.45-.42,3.54-.25,4.81.23,5.69,2.17,11.74,2.12,18.13,1.83,12.63-.57,25.38-1.64,37.68,1.5,1,.25,2.41-.33,3.64-.34,7.24-.1,14.48-.26,21.71-.14,2.75.05,8.86,0,11.93-.73a8,8,0,0,1,2.92-.16c6.92,1.28,13.71-.42,20.61-.31,5.58.09,10.82-.05,14.22,3.26a6.39,6.39,0,0,1,.57.68c-.32,1.19-.61,2.28-1,3.56,5.39-.92,5.39-.92,7.06-3.7l-5.47-2.8c5.21,0,10.44.35,15.46-.12a61.17,61.17,0,0,1,17.81.78,31.73,31.73,0,0,0,5.21.49q19.91.53,39.81.95c2.13,0,4,.38,5.8-1.27,1.58-1.48,4.63-1.07,6.92.5a10.71,10.71,0,0,0,4.94,1.42c4,.2,8,0,12,0,2.87,0,6.29-.76,6.86,2.15,0,.21,3.23.64,3.7.31,4.56-3.24,10.55-2.09,16-2,6.77.1,13.53.59,20.3.85,1.22,0,3.26,0,3.58-.36,2.8-3.45,8.21-2.18,12.42-2.43,3.66-.22,7.93-.28,10.67,2.2.7.64,3,.61,4.75.92.28-1.06.47-1.77.7-2.62l19.15-.69c1.41,2.13,4.31,2.87,8.16,2.83,1.64,0,3.26.73,5,1,5,.76,10,2.11,14.56-.94a6.17,6.17,0,0,1,6.8.28l-3.21,1.43c5.45-.75,10.3-1.37,15.11-2.09,5.28-.8,10.92,1.69,16.89-.86a38,38,0,0,0-3.45-2.23c-1.7-.86-4-1.4-5.26-2.44-2.62-2.17-5.63-2.15-10-1.23,1.7,2.74-1.32,3.83-3.39,4.42-6.16-.86-11.19-1.62-16.26-2.26-2.91-.36-6.11-.17-7.6-2.33a3.51,3.51,0,0,0-2.2-1.16A101.21,101.21,0,0,0,1177,696c6.15,2.31,13.67-.13,21.1,2.79a56.13,56.13,0,0,1-6.07.63c-11.27-.34-22.55-.67-33.79-1.21-3.92-.18-7.59-.39-10.44,1.58-1.95,1.35-4.22,1-6.16.36-2.32-.79-4.29-2-7.72-3.57l14.67-.58a6.76,6.76,0,0,0-4.16-1.64q-24-.39-48-.62c-1.67,0-3.33.4-5,.52a27.81,27.81,0,0,1-4.37.09c-7.17-.6-14.32-1.28-21.48-1.94-8.2,2.93-16.39-3.31-24.62,0a2.69,2.69,0,0,1-1.37-.3c-1.88-.88-3.44-.3-5.47,0-6.09.93-12.72,1.76-18.52.12-4.69-1.33-8.37-1.33-12.07.46-4.95-2.65-5.78-2.83-10.63-.93-2.44.95-4,1.62-6-.29-.55-.54-2.43-.7-3.75-.78a97,97,0,0,0-12-.44c-7.12.47-14.41-.48-21.37.91-2,.4-4,1.81-5.79,1.69-7.27-.45-14.37-.75-21.43,2-.73-3.12-3.69-4-7.62-4.8a47.62,47.62,0,0,0-14.86-.48,25.7,25.7,0,0,0-6.58,1.65c-1.74.7-2.48,2.3-5.53,1-.69-.29-3.38,1.21-5.21,1.83a2.68,2.68,0,0,1-1.46-.08c-4.44-1.91-7.47.34-10.78,1.5l-7.75-2,.36-.74,5.2-.35c0-.25,0-.5,0-.74l-14.62-.57c-3.71,3-5.62,3.33-11.93,2.31-3.2-.52-6.33-1.21-7.29,2-.43,1.44-2.41,1.37-5.13.24a4.15,4.15,0,0,0-2.2-.28c-3.48,1-5.58-.14-7.67-1.94-3,2.15-6.49,2-10.34,1.06-1.73-.44-5.08-.84-5.58-.39-2.56,2.32-6.91,1.54-9.46,1.43-4.52-.19-8.58.68-12.85.72-2.37,0-5.93.18-6.88-.63-2.44-2.06-5.08-1.47-7.5-.77-6.69,1.94-13.55,1.61-20.49,1-1.21-.11-2.55-.76-3.52-.57-7,1.41-14.51.3-21.59,1.42a16.87,16.87,0,0,1-4.48.2c-4.17-.5-8.85.64-12.46-2-1.42-1.05-5.33-.8-6.51.83-1.54,2.12-4.31,1.84-6.91,1.95-4,.18-8,.35-12,.19-3.65-.15-7.25-.77-10.9-1.1a15.14,15.14,0,0,0-3.21.2c-1.91.25-3.78.67-5.7.84-12.34,1.09-24.7,1.74-37.05,0-2.21,1.28-3.27,2.39-4.64,2.56a84,84,0,0,1-9,.3c-5.68.1-6.67.68-7.59,4.57,18.72-2.54,37.81-2.88,56.84-3.61,1.48-.06,3,.16,4.49.22a92.09,92.09,0,0,0,10.34.32c4.62-.33,9.23-2,13.41.72A5.37,5.37,0,0,0,688,703c5.87-.27,11.73-.52,17.58-.88,2.16-.13,4.86-1.19,6.31-.7,4.79,1.59,9.09.54,13-.34,5,1.65.9,3.95,1.63,6l10.54.21-5.8-5.7c5.51-2.07,9.15-2.21,11.56-.72,3.83,2.36-.84,3.63-2.26,5.33,4.29.47,4.29.47,7.65-.77-3.21-3.9-1.87-5.77,4.9-6.17,5.73-.34,11.76-1,17.23-.26,6.87.9,13.43.31,20.14.22,1.3,0,2.61.07,3.91.11.05.23.1.45.16.67l-7.2,1.81,12.56,5.52-7.54,3a26.07,26.07,0,0,0,3.77.43c11.62-.83,22.92-3.16,34.82-2.8.9,0,1.83-.58,2.78-.64,5.68-.36,11.37-.87,17-.85a79,79,0,0,0,9.24,0C866.21,705.88,872.79,705.51,879.2,707.15Zm24-15,.09,1-6,.19c0-.4,0-.8,0-1.2Z" transform="translate(-335.28 -356)"/><path d="M1264.86,717.61c-9.64-1.57-18.83-.88-28.1-.32-9,.55-17.62-.26-26.18-1.25s-17.09-1.71-25.73-2.15c-3.74-.19-7.51-.18-11.26-.3-9.4-.28-18.74-2.57-28.24-.2-1.24.31-3-.16-4.46-.18-10.21-.1-20.34-1.88-30.65-.19-3,.5-6.6.29-9-1.52-2.93-2.2-7-2.76-11.19-3-3,3.37-2.94,3.41-9.07,3.78a42.91,42.91,0,0,1-6,0c-7.37-.6-14.72,1.17-22.13-.12a99.46,99.46,0,0,0-10.19-.75c-3.72-.25-8-1.31-11.05-.53-5.49,1.4-10.86,1-16.28,1-3.45,0-6.9-.93-10.35-.94-9,0-18,.51-27,.25-6.31-.19-13.91,1.61-18.74-4.53-1.79,5.87-7.84,3.87-12.5,4.37-5.45.6-10.12.28-14.11-2.72l.4,2.23c-4,.11-8,.26-11.95.32s-8.19.59-11.77-.1c-4.66-.9-8.84-.57-13.33-.07a48.07,48.07,0,0,1-8.14.15c-6.76-.41-13.26.3-21.71,1.06l6,2-6.83,1.83,12.42,1.88,2.8-2.1a28.42,28.42,0,0,0,5,.59,56.9,56.9,0,0,1,16.81,1.15c.77.15,2-.54,3-.84l-1.86-1.57a18.76,18.76,0,0,1,3.87-.5,60.76,60.76,0,0,0,13.13-.28,103.85,103.85,0,0,1,15.7-.35c2.82.11,5.51,1.53,8.32,1.61,7.74.23,15.54.33,23.26,0a379.41,379.41,0,0,1,42.81.81c3,.2,6,1,8.8.8,15.3-1,30.55-.62,45.83-.05q24.48.91,49,1.45c16.29.37,32.62.36,48.91.82,13,.37,25.88,1.32,38.84,1.78,10,.35,20.12-.76,30.22.35,3,.34,6.47-.56,9.84-.9,2.11.59,4.57,1.85,7,1.84,7.25,0,14.49-.6,21.75-.86,5.71-.2,11.45-.43,17.16-.34,4.7.07,9.38.59,14.07.92l.32-1a61.55,61.55,0,0,0-6.88-1.23C1285.22,719,1274.64,719.21,1264.86,717.61Z" transform="translate(-335.28 -356)"/><path d="M1161.21,723.54c-9.92-.68-19.61-1.71-29.36-1.95-19.83-.49-39.69-.55-59.54-.8-10.28-.12-20.55-.28-30.83-.41-14.54-.19-29.08-.4-43.61-.51-2.86,0-5.72.34-8.93.55.73.78.89,1.08,1.23,1.28a2.74,2.74,0,0,0,1.27.45c56.48-.64,112.89,1,169.32,1.73a.6.6,0,0,0,.46-.26C1161.27,723.5,1161.13,723.35,1161.21,723.54Z" transform="translate(-335.28 -356)"/><path d="M845,715.3a199.34,199.34,0,0,0-21-.91c-6.93-.06-13.71,1.9-21.53.76l4.13-2.64-11.11.59,3.89,1.68-.39,1a57.35,57.35,0,0,0-6.3.08c-2.17.26-4.17,1.05-6.34,1.31a13,13,0,0,1-4.35-.39c-6.12-1.5-10.77.39-15.39,2.39-.1,0,.29.51.19.34,3.93.5,7.4,1,10.93,1.35,1.3.13,3.59.06,3.9-.35,1.47-1.9,3.34-1.35,5.56-.76a12.34,12.34,0,0,0,4.1.59c3.82-.4,7.61-1,11.35-1.61,4.06-.7,7.62-.31,11.09,2,1.25-2.7,3.91-3.07,7.22-2.68,3.15.37,6.58,1.23,9.43.79,4.53-.7,3.41,2.67,6.36,2.85l1.27-3.64C840.25,716.59,844.57,718.74,845,715.3Z" transform="translate(-335.28 -356)"/><path d="M1575.89,634.41c.68-.42,1.41-.81,2-1.25,4.48-3.31,4.81-3.27,11.27-1.44,3.14.88,6.83,2.21,9.85,1.88,7.82-.85,15.39-1.37,23.24.48-5.72-7.08-5.72-7.08-9.3-7-.32,1.12-.64,2.25-1,3.56l-7.91-.07c.27-1.45.45-2.41.62-3.35-6.57-.67-6.5-.6-11.18,1.29a12.55,12.55,0,0,1-4.77.73,11.36,11.36,0,0,1-6.9-2.34,12.22,12.22,0,0,0-11.29-1.67c-3.7,1.34-3,3.55-3.34,5Zm-4.29-6a17.63,17.63,0,0,1,2.88,1.08c-1.36.51-2.3,1.1-2.75,1a2.36,2.36,0,0,1-1.39-1.32C1570.26,628.93,1571.29,628.32,1571.6,628.37Z" transform="translate(-335.28 -356)"/><path d="M1693.44,644c-1-1.43-1.42-2.9.43-4.69-3.82-.85-7.42-2.57-12-.62a14.13,14.13,0,0,1,3.63,3.12c-8.19-2.14-16.32-4-19.38-4.21-.78-.06-1.67.47-3.77,1.1,4.76,1.16,8.12,2.42,11.71,2.75,4.8.46,8.26,1.67,11.36,3.92,2.46,1.79,5.85,3.09,9.65,5-.15-.81-.25-1.34-.33-1.75a20.62,20.62,0,0,0,2.79.45,6,6,0,0,0-.76-1.35l8.09,0A115.72,115.72,0,0,0,1693.44,644Z" transform="translate(-335.28 -356)"/><path d="M1595.27,619.49l-6.61,1.9.27.65c1.62,0,3.23-.1,4.85-.12s3.74-.38,4.29.06c4.93,3.87,8.47.67,14.27-.89-3.87-.74-8-1.24-8-1.59.2-2.08-2.09-2.23-4.13-2.36-7.61-.48-15.24-.82-23.31-1.23C1581.49,619.91,1589.62,616.56,1595.27,619.49Z" transform="translate(-335.28 -356)"/><path d="M416.56,606.36c-1.8-1.27.88-4.41-4.92-4.27l-4.83,2.8c5.09,3.18,8.63,7.18,18.16,7.32-1.67-2.46-1.18-4.3,2.36-5.64.72-.27.58-1.38,1-2.44C423.71,604.75,421.28,607.75,416.56,606.36Z" transform="translate(-335.28 -356)"/><path d="M710.43,722.72c14.41-.42,27.3-.76,41.7-2.39C743.19,718.11,717.72,719.57,710.43,722.72Z" transform="translate(-335.28 -356)"/><path d="M1308.63,691.74c4.59,1.29,8,1.17,11.74-.2,4.32,3,9.37,2.79,14.66-.59A50.82,50.82,0,0,0,1308.63,691.74Z" transform="translate(-335.28 -356)"/><path d="M700.71,721.6c-2.13.15-4.83.83-6.32.29-5.9-2.15-11.3,0-16.89.27l6,2.94c5.6-1.28,11.06-2.84,16.41.11l7.68-3.21-.61-.92C704.87,721.26,702.8,721.45,700.71,721.6Z" transform="translate(-335.28 -356)"/><path d="M1337.45,676.73c0-.34,0-.69,0-1l-21.28-.27-.48.72,2.91,1.29-3,3.57Z" transform="translate(-335.28 -356)"/><path d="M1652.78,682.73c3.45,3.43,8.88,3.18,13.3,4.22s8.56,2.2,12.83,3.3C1672.1,685.53,1664.21,682.34,1652.78,682.73Z" transform="translate(-335.28 -356)"/><path d="M1741.77,657.19c5.32,1.49,5.32,1.49,6.11,3.54l20,2.95c.14-.37.29-.75.44-1.12C1759.65,660.4,1751.53,657.38,1741.77,657.19Z" transform="translate(-335.28 -356)"/><path d="M415.35,597c2.64-1.73,3.76-3.71,3.25-6.07-6.4.44-10,2.89-14.3,6.08C408.72,596,411.68,599.42,415.35,597Z" transform="translate(-335.28 -356)"/><path d="M1714.5,650a24.62,24.62,0,0,0,3.41,2c3.84,1.52,9,1.3,12.39,3.62.37.26,2.55-.45,3.9-.71.1-.48.2-1,.31-1.44C1726.76,654,1723.28,648.71,1714.5,650Z" transform="translate(-335.28 -356)"/><path d="M715.66,716.71h0l-.12.08Z" transform="translate(-335.28 -356)"/><path d="M725.24,715.42a10.56,10.56,0,0,0,10.25,1.1h0l.14.08.27-.05-.37,0c-1.43-1.11-2.12-2.84-5.45-2.35-4.88.72-10.31.27-14.44,2.53C719.59,719,719.61,718.94,725.24,715.42Z" transform="translate(-335.28 -356)"/><path d="M771.43,706.61l-11.95,1.59.39,1,15.36,1.06Z" transform="translate(-335.28 -356)"/><path d="M1715.37,718.58l.05.08.2-.1Z" transform="translate(-335.28 -356)"/><path d="M1714.57,717.44c-5.12-1.49-10.3-2.9-15.47-4.33-.24.31-.47.62-.71.92,4.93,2.4,9.69,5,17,4.55C1715.14,718.16,1715,717.58,1714.57,717.44Z" transform="translate(-335.28 -356)"/><path d="M1666.46,671.08c-5.75-2.07-13-2.49-18-1.24Z" transform="translate(-335.28 -356)"/><path d="M677.21,722.14l.19,0h.1l-.3-.14S677.21,722.1,677.21,722.14Z" transform="translate(-335.28 -356)"/><path d="M665.46,723.25c5.76,2.42,5.76,2.42,11.95,1.88-.07-1-.13-2-.2-3C673.13,721.52,669.21,721.46,665.46,723.25Z" transform="translate(-335.28 -356)"/><path d="M1583.81,603.86c.27-.19.21-.56.37-1-3.42-2-6.72.71-10.06.27C1577.2,607.88,1578.06,607.91,1583.81,603.86Z" transform="translate(-335.28 -356)"/><path d="M1658.25,567.41c-.3.35-.61.7-.91,1.06l6.26,4.23,3.56-4-1.17-.17,2-1.35-2.74-1.59-2.6,2.46Z" transform="translate(-335.28 -356)"/><path d="M1595.93,550l11.64,1.73C1603.3,548.14,1603.3,548.14,1595.93,550Z" transform="translate(-335.28 -356)"/><path d="M1304.79,689.62c-4.09.57-7.48.34-10.87,1.84C1302.89,693,1302.89,693,1304.79,689.62Z" transform="translate(-335.28 -356)"/><path d="M1221.9,696.91l-12.1-.84C1214.93,699.55,1214.93,699.55,1221.9,696.91Z" transform="translate(-335.28 -356)"/><path d="M1175.6,723.9l-1.43-.1C1174.65,723.85,1175.12,723.88,1175.6,723.9Z" transform="translate(-335.28 -356)"/><path d="M1175.6,723.9l15.29,1.05C1186.24,722.61,1180.87,724.1,1175.6,723.9Z" transform="translate(-335.28 -356)"/><path d="M1533.11,604.7l.44.88,6.65.46,1.23-1.17c-1.31-.68-2.63-1.9-4-1.9S1534.57,604.08,1533.11,604.7Z" transform="translate(-335.28 -356)"/><path d="M1710.23,698.38l-10.47-.26C1705.07,701,1708.27,701,1710.23,698.38Z" transform="translate(-335.28 -356)"/><path d="M1713.84,654.48c-.06-.37-.13-.74-.2-1.11l-10.35.53c.06.44.12.87.19,1.3Z" transform="translate(-335.28 -356)"/><path d="M1357.21,678l9.81.39c.06-.4.13-.8.2-1.2C1363.9,677.16,1360.6,676,1357.21,678Z" transform="translate(-335.28 -356)"/><path d="M1373.34,695.33l8.94-1.94C1373.11,692.44,1373.11,692.44,1373.34,695.33Z" transform="translate(-335.28 -356)"/><path d="M1172.74,695.11c-3.9,0-6.78-1-9.83,1.75C1166.79,696.92,1169.57,698.11,1172.74,695.11Z" transform="translate(-335.28 -356)"/><path d="M704.87,717.37c4,1.65,7.18.09,10.49-.61C709.92,714.67,709.88,714.69,704.87,717.37Z" transform="translate(-335.28 -356)"/><path d="M715.63,716.7l-.27.06.12,0Z" transform="translate(-335.28 -356)"/><path d="M1615.53,667.26l8.76-1.28c-.1-.34-.2-.68-.31-1C1618.78,664.15,1618.78,664.16,1615.53,667.26Z" transform="translate(-335.28 -356)"/><path d="M1427,696.6l.12,1.25,10.31-.73C1432.88,694.74,1430,695.8,1427,696.6Z" transform="translate(-335.28 -356)"/><path d="M969.55,701.63l-9,.63C966.09,704.26,966.09,704.26,969.55,701.63Z" transform="translate(-335.28 -356)"/><path d="M1573.46,610.64a11.82,11.82,0,0,0,3.81-.89c.34-.15-.09-1.52-.36-1.54a16.54,16.54,0,0,0-4,.11,14.86,14.86,0,0,0-3,1.33C1571.68,610.18,1572.61,610.68,1573.46,610.64Z" transform="translate(-335.28 -356)"/><path d="M1564.18,654.62l9.73.26C1569.81,651.82,1569.81,651.82,1564.18,654.62Z" transform="translate(-335.28 -356)"/><path d="M687.43,706.05l-10,0C683.43,707.54,683.43,707.54,687.43,706.05Z" transform="translate(-335.28 -356)"/><path d="M1770.41,615l9.36,1.77c.14-.33.27-.65.4-1l-9.64-1.15Z" transform="translate(-335.28 -356)"/><path d="M1679.73,694.1c3,1.29,5.15,2.45,8.85,1.26C1686.24,693.18,1683.67,693.13,1679.73,694.1Z" transform="translate(-335.28 -356)"/><path d="M1672.48,705.61l-11.86-2.05C1664.83,706.69,1668.83,705.66,1672.48,705.61Z" transform="translate(-335.28 -356)"/><path d="M818.07,688.67l8.38,1.44C823.45,687.7,823.45,687.7,818.07,688.67Z" transform="translate(-335.28 -356)"/><path d="M1198.93,724.12l0,.16,14.53,1v-.16Z" transform="translate(-335.28 -356)"/><path d="M899.5,728.91l-6.59-.46C896.66,730.15,896.66,730.15,899.5,728.91Z" transform="translate(-335.28 -356)"/><path d="M936,730.2l6.21-.12V729C940,728.16,937.85,727.84,936,730.2Z" transform="translate(-335.28 -356)"/><path d="M698.58,717l-9.05-.06.09,1.2,9.09-.46C698.67,717.47,698.62,717.24,698.58,717Z" transform="translate(-335.28 -356)"/><path d="M658.49,725.87c.55-1.42.93-2.41,1.57-4.09l-6.73,1.68Z" transform="translate(-335.28 -356)"/><path d="M1488.3,582l-8.89-.3C1484.12,583.58,1484.12,583.58,1488.3,582Z" transform="translate(-335.28 -356)"/><path d="M773.93,714.23l9.22-.22c0-.38,0-.76-.08-1.14l-9.23.12Z" transform="translate(-335.28 -356)"/><path d="M1652.92,637.56c1.44-.11,2.84-.32,4.26-.51l-.52-1.14.33-.49-5.14-1.5c-.23.46-.47.91-.71,1.37l3.18.72c-.65.13-1.3.27-1.93.44A3.05,3.05,0,0,0,1652.92,637.56Z" transform="translate(-335.28 -356)"/><path d="M1402.76,694.14l-7.79.31C1398.7,696.14,1398.7,696.14,1402.76,694.14Z" transform="translate(-335.28 -356)"/><path d="M1266.55,727.26l8-.59C1270,726.2,1270,726.2,1266.55,727.26Z" transform="translate(-335.28 -356)"/><path d="M1672.88,625.25l1.43,1,3.63-2.2-.88-.48Z" transform="translate(-335.28 -356)"/><path d="M1629.61,666l5.07,1.39.6-.9-5.29-1.13C1629.87,665.61,1629.74,665.82,1629.61,666Z" transform="translate(-335.28 -356)"/><path d="M1152.78,680.62l4.44-.33c-.06-.33-.13-.65-.19-1l-4.45.11C1152.65,679.82,1152.72,680.22,1152.78,680.62Z" transform="translate(-335.28 -356)"/><path d="M920.7,705.6c3.36-2.37,3.34-3.3-1.12-3.61C919.92,703.08,920.17,703.87,920.7,705.6Z" transform="translate(-335.28 -356)"/><path d="M771.21,704.67l6.54-1.91C773.43,702.08,771.22,701.75,771.21,704.67Z" transform="translate(-335.28 -356)"/><path d="M669.12,718.3l-5-.55c-.09.39-.19.77-.29,1.15l5,.35C669,718.94,669.05,718.62,669.12,718.3Z" transform="translate(-335.28 -356)"/><path d="M1543.55,625.43c1.39.62,2.12,1.2,2.79,1.18a3.44,3.44,0,0,0,2.21-.93c.2-.25-.85-1.25-1.23-1.22A20.22,20.22,0,0,0,1543.55,625.43Z" transform="translate(-335.28 -356)"/><path d="M1715.51,701.72a22.19,22.19,0,0,0-2.76-.22c-.07.18-.14.36-.2.54l4.23,1.29.91-.76A13.32,13.32,0,0,0,1715.51,701.72Z" transform="translate(-335.28 -356)"/><path d="M1376.88,681.27a12.92,12.92,0,0,0,3-1.09c-1.08-.7-1.7-1.1-2.31-1.51a7.59,7.59,0,0,0-2.08,1.46C1375.31,680.38,1376.51,681.32,1376.88,681.27Z" transform="translate(-335.28 -356)"/><path d="M1122.29,680.6l7.27.06c0-.17,0-.34.07-.51l-6.88-.76C1122.59,679.8,1122.44,680.2,1122.29,680.6Z" transform="translate(-335.28 -356)"/><path d="M649.63,719.71l6-1.6C649.66,717.82,649.66,717.82,649.63,719.71Z" transform="translate(-335.28 -356)"/><path d="M1615.09,490.11c0-.1,0-.21,0-.32l-7.77-.54,0,.33Z" transform="translate(-335.28 -356)"/><path d="M1523.16,457.2l-.35.57a11.43,11.43,0,0,0,2.3.74,16.21,16.21,0,0,0,2.77-.11c0-.21,0-.42,0-.63Z" transform="translate(-335.28 -356)"/><path d="M1609.3,477l-.24-.59-4.65-.13c1.83.74,2.36,1.11,2.92,1.13A7.87,7.87,0,0,0,1609.3,477Z" transform="translate(-335.28 -356)"/><path d="M1828.45,572l3.81.85c.11-.32.21-.63.32-.94l-4-.28Z" transform="translate(-335.28 -356)"/><path d="M1428.64,601.06c.8.58,1.61,1.17,2.46,1.73a4.58,4.58,0,0,0,1-.5c-.58-.66-1.27-1.29-1.92-1.93Z" transform="translate(-335.28 -356)"/><path d="M1587.86,625.84c-.17.37.63.92,1.34,1.82.94-.85,1.63-1.27,1.85-1.77.1-.22-.86-.9-1.1-.86C1589.15,625.16,1588,625.46,1587.86,625.84Z" transform="translate(-335.28 -356)"/><path d="M427.84,597.82l-4,1.78,1.29.91,3.58-2.09Z" transform="translate(-335.28 -356)"/><path d="M1157.86,695.38l-3.9-.27c0,.25-.09.49-.14.73l3.91.27Z" transform="translate(-335.28 -356)"/><path d="M592.93,705.92l7.69-.66C597.91,704.13,595.32,704.14,592.93,705.92Z" transform="translate(-335.28 -356)"/><path d="M600.75,705.31l-.06,0h-.07Z" transform="translate(-335.28 -356)"/><path d="M1650.63,577.72l-.44.64c.45.31.82.79,1.37.89a15.77,15.77,0,0,0,2.67,0c.09-.28.19-.56.28-.84Z" transform="translate(-335.28 -356)"/><path d="M1516.83,588.88l3.44.74c.14-.26.27-.53.41-.8l-3.55-.57Z" transform="translate(-335.28 -356)"/><path d="M1691,711.21a5.29,5.29,0,0,0,0,1.14l3.79,0-.09-1.18C1693.45,711.15,1692.22,711.13,1691,711.21Z" transform="translate(-335.28 -356)"/><path d="M1474.6,697.46l.11.57,4.89.33.26-.49a13,13,0,0,0-2.44-.61A19.3,19.3,0,0,0,1474.6,697.46Z" transform="translate(-335.28 -356)"/><path d="M1715.42,718.66l.37.07-.16-.17Z" transform="translate(-335.28 -356)"/><path d="M1720.11,719.54l-4.32-.81C1716.57,719.61,1717.13,720.79,1720.11,719.54Z" transform="translate(-335.28 -356)"/><path d="M1148.12,704l3.87.27v-.1l-3.88-.27Z" transform="translate(-335.28 -356)"/><path d="M718.08,706.36a2.72,2.72,0,0,0-1.65.76c-.2.24.29.69.48,1l2.88-.72C718.92,706.87,718.42,706.32,718.08,706.36Z" transform="translate(-335.28 -356)"/><path d="M542.31,697.19l-.16-.12-.17.12Z" transform="translate(-335.28 -356)"/><path d="M538.65,699.41l3.33-2.22C538.09,697.11,538.1,697.18,538.65,699.41Z" transform="translate(-335.28 -356)"/><path d="M836.08,746.25c.06.23.13.45.19.67l4.26-.39c-.08-.27-.16-.54-.23-.8Z" transform="translate(-335.28 -356)"/><path d="M807.91,754a21,21,0,0,0,2.38-.68l-4.73.35A10.94,10.94,0,0,0,807.91,754Z" transform="translate(-335.28 -356)"/><path d="M1698,581.2c-.45-.11-1.11-.38-1.31-.28a6.6,6.6,0,0,0-1.35,1l2.68-.09C1698,581.64,1698,581.42,1698,581.2Z" transform="translate(-335.28 -356)"/><path d="M1460.38,434.77l3.47-.38c0-.15,0-.3-.07-.45l-3.31-.22Z" transform="translate(-335.28 -356)"/><path d="M1618.35,619.69a13.28,13.28,0,0,0-2.16-.65,3.64,3.64,0,0,0-1.24.36,7.4,7.4,0,0,0,1.06,1A19.75,19.75,0,0,0,1618.35,619.69Z" transform="translate(-335.28 -356)"/><path d="M1775.24,664.76c-.25-.12-1.08.21-1.65.34.31.35.61.71.9,1l1.49-.32C1775.75,665.46,1775.68,665,1775.24,664.76Z" transform="translate(-335.28 -356)"/><path d="M1438.74,670.64l3.61.58.28-.86L1439,670Z" transform="translate(-335.28 -356)"/><path d="M1364.1,680.35c.22.19.4.5.67.53a4.92,4.92,0,0,0,1.29-.17l-.69-.61Z" transform="translate(-335.28 -356)"/><path d="M1236.86,683.79l4.19-.17c0-.23,0-.46,0-.68l-4.23-.3Z" transform="translate(-335.28 -356)"/><path d="M1547.1,513.05l3.57-.13c-.06-.28-.13-.56-.19-.83l-3.47.15Z" transform="translate(-335.28 -356)"/><path d="M1169.77,680.92l.33-.94-4.61-.11-.1.51Z" transform="translate(-335.28 -356)"/><path d="M1310.34,704.68a3.37,3.37,0,0,0,1.12.35c.29,0,.53-.35.79-.54l-1.12-.38Z" transform="translate(-335.28 -356)"/><path d="M1239.27,713.37l3.18-.1a3.34,3.34,0,0,0-.24-.77c-1,0-2,.13-3,.2Z" transform="translate(-335.28 -356)"/><path d="M882.32,691.38l-.43-.65-4.14.78.73,1Z" transform="translate(-335.28 -356)"/><path d="M1283.22,727.07l0,.21,3.39.23c0-.1,0-.2,0-.3Z" transform="translate(-335.28 -356)"/><path d="M739.69,715.83l-3.77.73,4,.28C739.86,716.51,739.77,716.17,739.69,715.83Z" transform="translate(-335.28 -356)"/><path d="M360.38,492.28Z" transform="translate(-335.28 -356)"/><path d="M1503.3,466.32c.52.7,2.72,1.16,4.26,1.31,4.82.46,9.69.72,14.91,1.08l2.44-2c-5.14-1.16-9.86-2.22-14.6-3.25a5.79,5.79,0,0,0-1.46.11c-8.94.57-17.47-.6-25.87-2.31a42,42,0,0,0-4.18-.91c-3.1-.32-3.19.79-2.44,2.26,6.64.8,13,2.64,20.14,1.73C1499,464,1501.83,464.33,1503.3,466.32Z" transform="translate(-335.28 -356)"/><path d="M1551.38,473.51c-1.66-4.83-2.13-5.13-9.21-5.31a91.88,91.88,0,0,0-9.54.08c-1.28.11-2.37,1.1-3.83,1.82C1536.28,472.8,1542.92,475.46,1551.38,473.51Z" transform="translate(-335.28 -356)"/><path d="M360.37,492.28h0Z" transform="translate(-335.28 -356)"/><path d="M339.83,487.33l8.05-.38c0-.31,0-.63.05-.94l-11.12-1.4c-.53,2.07-1,3.84-1.53,5.94,1.7,3.36,7.14-.61,10.4,1.09l-2.36,1.64.66.83,16.32-1.83-8.54-.59C351.87,486.64,343.6,489.76,339.83,487.33Z" transform="translate(-335.28 -356)"/><path d="M1482.65,451.59c3.52-.13,6.94-1.34,10.93-2.19-7.9-3.71-16.44-2.88-25.07-2.49l6.42,1.55,6.28,1.51-.23.53-9.9-.69A37.09,37.09,0,0,0,1482.65,451.59Z" transform="translate(-335.28 -356)"/><path d="M1651.28,527.84l.09-.66-26.25-6.64c-.19,2.73-.07,4.65,3.84,5.23.83.13,2.09-.79,3.72-1.46a21.86,21.86,0,0,0,3.48,2.21c1.26.55,3.68,1.3,4.33,1,2.89-1.39,4.84-.63,7.21.43C1648.45,528.27,1650.06,527.89,1651.28,527.84Z" transform="translate(-335.28 -356)"/><path d="M1496.42,456.54c1.92.08,4.57-.19,5.61.46,3.27,2,7.18,1,10.7,1.53l1.27-.95c-1.09-.74-2-2-3.31-2.13-3.71-.49-7.6-.43-11.35-.82-3.18-.33-6.06-.1-11,1.77C1491.87,456.46,1494.15,456.46,1496.42,456.54Z" transform="translate(-335.28 -356)"/><path d="M1555.54,461.43c0-.65.37-1.63,0-1.71-4.66-1.26-9.29-2.92-14.76-1.45-.58,1.75.51,2.62,3.36,2.72C1547.85,461.11,1551.5,461.27,1555.54,461.43Z" transform="translate(-335.28 -356)"/><path d="M402.81,544.85c-6.91-.31-13.84-.58-20.76-.86a37.75,37.75,0,0,0,21,2C402.92,545.39,402.9,544.85,402.81,544.85Z" transform="translate(-335.28 -356)"/><path d="M1471.91,459.2l-23.49-1.63-.27,1.06,23.3,3.05C1471.67,460.49,1471.8,459.78,1471.91,459.2Z" transform="translate(-335.28 -356)"/><path d="M1476.19,452.69l-8.4-.58c-.81,3,1.76,4,5.89,4.88Z" transform="translate(-335.28 -356)"/><path d="M1499.22,468.22c-.07,1.12.31,2.53.64,2.53,3.75-.05,7.6,2.47,11.89-.19C1508,467.71,1502.21,471.74,1499.22,468.22Z" transform="translate(-335.28 -356)"/><path d="M1566.53,476.53c2.82-3.73-2.67-2.46-4.27-3.23-2.54-1.22-4.21.08-5.58,2.21Z" transform="translate(-335.28 -356)"/><path d="M1609.91,446.33l-16.29-2.73-.23.47,16,3.21C1609.53,447,1609.72,446.65,1609.91,446.33Z" transform="translate(-335.28 -356)"/><path d="M1479.18,466.45l12.82,2.1.41-.92A17.63,17.63,0,0,0,1479.18,466.45Z" transform="translate(-335.28 -356)"/><path d="M353.78,508.17c.41-.23.61-1.08.5-1.11-1.59-.44-3.23-.84-4.92-1.14a21.12,21.12,0,0,0-3.34.24c1,.89,1.26,1.47,1.92,1.75C349.75,508.68,351.74,509.33,353.78,508.17Z" transform="translate(-335.28 -356)"/><path d="M361.52,536.57Z" transform="translate(-335.28 -356)"/><path d="M361.52,536.57c3,.06,6.21,1.62,9.86-.85l-9.13-1.18C361.91,535.48,361.72,536,361.52,536.57Z" transform="translate(-335.28 -356)"/><path d="M1545.16,528.18l.21.16a3.43,3.43,0,0,0,.41-.49l.44-.28-.26,0c.48-1-.23-1.57-1.6-2a9.16,9.16,0,0,0-2.29.27l2.07,1.58c-3.79-.35-6.64-.8-9.2,1C1538,527.6,1541,530.23,1545.16,528.18Z" transform="translate(-335.28 -356)"/><path d="M1455,467.54l-13.92-1.66L1441,467C1445.85,466.57,1449.77,469.4,1455,467.54Z" transform="translate(-335.28 -356)"/><path d="M1486.86,454.75c-4.27-1.64-4.27-1.64-8.61-.18C1481.41,454.7,1483.82,457.22,1486.86,454.75Z" transform="translate(-335.28 -356)"/><path d="M358.08,520.11l-8.67-1.21C355.87,522.67,355.87,522.67,358.08,520.11Z" transform="translate(-335.28 -356)"/><path d="M1596,516.71l8.82,1.07.27-.81-8.69-1.45C1596.27,515.92,1596.13,516.31,1596,516.71Z" transform="translate(-335.28 -356)"/><path d="M1626.54,450.46l-7.79-2c-.22.28-.45.55-.67.82l8,1.91C1626.24,450.92,1626.39,450.69,1626.54,450.46Z" transform="translate(-335.28 -356)"/><path d="M1590.38,526.16l-8.6,1.37C1584.84,528,1588.39,529.06,1590.38,526.16Z" transform="translate(-335.28 -356)"/><path d="M361.56,536.59a.58.58,0,0,0-.14,0l.12.07Z" transform="translate(-335.28 -356)"/><path d="M367.18,540.19l.27-.57-5.91-3c-.32.63-.7,1.26-1.3,2.28Z" transform="translate(-335.28 -356)"/><path d="M1559.2,534.08l9-2.22C1562.82,531.25,1562.82,531.25,1559.2,534.08Z" transform="translate(-335.28 -356)"/><path d="M1616.05,464.7c4.85,2.37,4.85,2.37,7.91,1.24Z" transform="translate(-335.28 -356)"/><path d="M1434.85,460.48l.05.53,9,0c-.07-.28-.15-.56-.23-.84Z" transform="translate(-335.28 -356)"/><path d="M354.29,500.64c-3.44,1.54-3.44,1.54,0,3.71C354.27,503.15,354.28,502.12,354.29,500.64Z" transform="translate(-335.28 -356)"/><path d="M1562.14,451.41l4.63.48c0-.3.09-.6.14-.9l-4.65-.07Z" transform="translate(-335.28 -356)"/><path d="M1417.91,463l-6-1.35C1412.68,464.19,1414.75,463.58,1417.91,463Z" transform="translate(-335.28 -356)"/><path d="M1517.22,458.14l-.46.71,5.16.35c0-.07,0-.14,0-.21Z" transform="translate(-335.28 -356)"/><path d="M1540.61,431.92l-4.36-.09.12,1.11,4.31-.33C1540.66,432.38,1540.63,432.15,1540.61,431.92Z" transform="translate(-335.28 -356)"/><path d="M1585.15,455.9l5.29,1.11.53-.75c-1.62-.4-3.23-.82-4.88-1.18C1586,455.06,1585.68,455.43,1585.15,455.9Z" transform="translate(-335.28 -356)"/><path d="M1553.67,531.7l-4.72-1.87C1550.32,532.56,1550.32,532.56,1553.67,531.7Z" transform="translate(-335.28 -356)"/><path d="M1525.19,461.26l6.27.43.11-.18-6.08-1Z" transform="translate(-335.28 -356)"/><path d="M1457.75,461.54l-5.6-.39c1.78,2.15,3.61,1.76,5.41,1.3C1457.74,462.4,1457.67,462,1457.75,461.54Z" transform="translate(-335.28 -356)"/><path d="M1603.29,462.07l-4.67-.78-.15.31,4.59,1C1603.14,462.4,1603.21,462.23,1603.29,462.07Z" transform="translate(-335.28 -356)"/><path d="M354.79,513.33a5.92,5.92,0,0,0-1.72.58l1.49,1.12,1.62-.9C355.61,513.78,355.17,513.32,354.79,513.33Z" transform="translate(-335.28 -356)"/><path d="M348,467.77a12.81,12.81,0,0,0,1.88.16c-.14-.4-.16-.83-.32-.86a14.58,14.58,0,0,0-1.87,0C347.73,467.31,347.73,467.71,348,467.77Z" transform="translate(-335.28 -356)"/><path d="M1563,523.85h-3.49l-.19.27,3.65.26Z" transform="translate(-335.28 -356)"/><path d="M1536.76,520c.12.25.16.69.38.72a12.7,12.7,0,0,0,2,0c-.19-.39-.27-.84-.43-.85A14,14,0,0,0,1536.76,520Z" transform="translate(-335.28 -356)"/><path d="M1524.57,518.67l3.54.81.36-.53-3.45-1Z" transform="translate(-335.28 -356)"/><path d="M341.56,505.34c-.18.12.08.49.15.75l1.82-.32-.69-.66A4.19,4.19,0,0,0,341.56,505.34Z" transform="translate(-335.28 -356)"/><path d="M1635.68,479.66l-1.39-1.25c-.53.22-1.33.39-1.5.69s.48.64.84,1.06Z" transform="translate(-335.28 -356)"/><polygon class="cls-3" points="565.59 139.68 579.25 139.7 540 189.25 582.28 189.25 680.09 189.24 680.09 139.75 565.59 139.68"/><path class="cls-4" d="M530.28,484.42C520.74,494.26,516,506.49,516,520.8c0,15.2,4.77,27.43,14.61,37.27,9.84,9.54,21.77,14.31,36.38,14.31,20.57,0,36.37-9.54,47.4-28.33l44.43,32.2c-21.47,34-52.78,51-94.22,51q-45.17,0-76.92-30.41c-21.17-20.28-31.61-45.62-31.61-76,0-30.71,10.74-56.35,31.91-76.33s47.11-30.11,77.52-30.11q61.71,0,93,51l-45.92,32.5c-11-18.78-26.83-28.32-47.1-28.32A47.08,47.08,0,0,0,530.28,484.42Z" transform="translate(-335.28 -356)"/><path class="cls-4" d="M731.52,623.06H672.78V418.83h92.43c21.47,0,39.06,6.26,52.48,18.48s20,29.52,20,52.18c0,28.62-16.1,52.18-43.53,62.91L852,623.06H777.44l-45.92-62.91Zm0-152.35v42H751.2c17.59,0,26.53-6.86,26.53-20.57,0-14.32-8.94-21.47-26.53-21.47Z" transform="translate(-335.28 -356)"/><path class="cls-4" d="M1168,517.82l-29.52,105.24h-67.68l-46.51-204.23h62.31l23.56,125.82,35.78-125.82H1193L1228.81,545l24.45-126.12h59l-45.91,204.23h-68Z" transform="translate(-335.28 -356)"/><polygon class="cls-4" points="523.54 216.97 523.54 267.06 680.07 267.06 680.07 216.97 582.28 216.97 523.54 216.97"/><polygon points="654.58 139.61 615.38 189.2 640.84 189.2 680.09 139.64 654.58 139.61"/><polygon points="604.37 139.74 565.26 189.2 590.72 189.2 629.87 139.77 604.37 139.74"/><polygon class="cls-3" points="523.54 139.66 523.54 177.87 553.74 139.68 523.54 139.66"/><polygon class="cls-3" points="550.53 112.88 507.94 91.53 523.78 125.5 577.01 100.68 577 100.66 665.09 59.58 643.92 14.18 516.65 73.53 573.59 102.13 550.53 112.88"/><polygon points="619.5 80.79 562.49 52.16 539.36 62.94 596.43 91.55 619.5 80.79"/><polygon points="665.04 59.63 607.95 30.96 584.83 41.74 641.98 70.39 665.04 59.63"/><polygon points="507.94 91.53 550.68 112.96 573.75 102.2 516.65 73.53 502.6 80.08 507.94 91.53"/><polygon points="553.74 139.67 553.74 139.68 565.59 139.68 553.74 139.67"/><polygon points="565.59 139.68 553.74 139.68 523.54 177.87 523.54 189.25 540 189.25 579.25 139.7 565.59 139.68"/></g></g></g></svg>